<svg width="24" height="24" viewBox="0 0 24 24" fill="none" xmlns="http://www.w3.org/2000/svg">
<path d="M9.4332 6L9.4332 3.5668L14.5597 3.55973L14.5597 6" stroke="#111111" stroke-width="1.5" stroke-miterlimit="10" stroke-linecap="round" stroke-linejoin="round"/>
<path d="M5 7.99888C5 6.14992 5.693 6 6.554 6H17.446C18.307 6 19 6.14992 19 7.99888C19 10.1477 18.307 9.99775 17.446 9.99775H6.554C5.693 9.99775 5 10.1477 5 7.99888Z" stroke="#111111" stroke-width="1.5"/>
<path d="M10 14V17.55" stroke="#111111" stroke-width="1.5" stroke-linecap="round"/>
<path d="M14 14V17.55" stroke="#111111" stroke-width="1.5" stroke-linecap="round"/>
<path d="M6.00007 10L5.99536 18.64C6.00007 21 7.00006 22 8.7836 22H15.0401C17.2354 22 17.8142 21 17.8142 18.76L18.0001 10" stroke="#111111" stroke-width="1.5" stroke-linecap="round"/>
</svg>
