<svg width="20" height="20" viewBox="0 0 20 20" fill="none" xmlns="http://www.w3.org/2000/svg">
<path d="M7.861 4.99998L7.861 2.97231L12.1331 2.96642L12.1331 4.99998" stroke="#111111" stroke-width="1.2" stroke-miterlimit="10" stroke-linecap="round" stroke-linejoin="round"/>
<path d="M4.16675 6.66573C4.16675 5.12493 4.74425 5 5.46175 5H14.5384C15.2559 5 15.8334 5.12493 15.8334 6.66573C15.8334 8.45639 15.2559 8.33146 14.5384 8.33146H5.46175C4.74425 8.33146 4.16675 8.45639 4.16675 6.66573Z" stroke="#111111" stroke-width="1.2"/>
<path d="M8.33325 11.6667V14.625" stroke="#111111" stroke-width="1.2" stroke-linecap="round"/>
<path d="M11.6667 11.6667V14.625" stroke="#111111" stroke-width="1.2" stroke-linecap="round"/>
<path d="M5.00002 8.33331L4.99609 15.5333C5.00002 17.5 5.83334 18.3333 7.31962 18.3333H12.5333C14.3628 18.3333 14.8451 17.5 14.8451 15.6333L15 8.33331" stroke="#111111" stroke-width="1.2" stroke-linecap="round"/>
</svg>
