<svg width="81" height="81" viewBox="0 0 81 81" fill="none" xmlns="http://www.w3.org/2000/svg">
<g clip-path="url(#clip0_2425_43)">
<path d="M40.04 80.09C17.96 80.09 0 62.13 0 40.04C0 17.95 17.96 0 40.04 0C62.12 0 80.08 17.96 80.08 40.04C80.08 62.12 62.12 80.08 40.04 80.08V80.09ZM40.04 3C19.62 3 3 19.62 3 40.04C3 60.46 19.62 77.08 40.04 77.08C60.46 77.08 77.08 60.46 77.08 40.04C77.08 19.62 60.47 3 40.04 3Z" fill="#223FD7"/>
<path d="M38.9619 36.7238C37.9719 36.7238 36.9819 36.5638 36.0119 36.2238C35.2319 35.9538 34.8119 35.1038 35.0819 34.3138C35.3519 33.5338 36.2019 33.1138 36.9919 33.3838C38.5919 33.9338 40.3119 33.7938 41.7319 33.0038C43.2719 32.1438 44.6419 31.8338 45.7919 32.0838C46.6019 32.2538 47.1219 33.0538 46.9419 33.8638C46.7719 34.6738 45.9719 35.1838 45.1619 35.0138C45.0119 34.9738 44.4319 34.9338 43.1919 35.6238C41.9019 36.3438 40.4419 36.7138 38.9619 36.7138V36.7238Z" fill="#223FD7"/>
<path d="M46.4979 48.1576C46.0479 48.1576 45.5979 47.9576 45.3079 47.5676C44.8079 46.9076 44.9279 45.9676 45.5879 45.4676C46.9279 44.4476 47.7679 42.9276 47.8979 41.3176C48.0379 39.5576 48.5379 38.2476 49.3779 37.4276C49.9679 36.8476 50.9179 36.8576 51.4979 37.4576C52.0779 38.0476 52.0679 38.9976 51.4679 39.5776C51.3579 39.6876 50.9979 40.1376 50.8879 41.5576C50.6979 44.0176 49.4279 46.3176 47.4079 47.8576C47.1379 48.0676 46.8179 48.1676 46.4979 48.1676V48.1576Z" fill="#223FD7"/>
<path d="M35.6273 51.4673C35.3873 51.4673 35.1373 51.4073 34.9073 51.2873C32.6773 50.0673 31.0773 47.9973 30.5073 45.5873C30.1773 44.2073 29.7573 43.8073 29.6273 43.7173C28.9573 43.2373 28.7973 42.2973 29.2773 41.6273C29.7573 40.9573 30.6973 40.7973 31.3673 41.2773C32.3273 41.9573 33.0173 43.1773 33.4173 44.8973C33.7873 46.4773 34.8473 47.8473 36.3273 48.6473C37.0573 49.0473 37.3173 49.9573 36.9273 50.6873C36.6573 51.1873 36.1373 51.4673 35.6073 51.4673H35.6273Z" fill="#223FD7"/>
<path d="M45.9102 61.4299C44.8302 61.4299 43.7602 61.0999 42.7902 60.8099C41.9302 60.5499 41.1202 60.2999 40.4502 60.2999C39.7802 60.2999 38.9602 60.5499 38.1102 60.8099C36.7102 61.2399 35.1302 61.7199 33.5602 61.2199C31.9402 60.6899 30.9302 59.3399 30.0302 58.1399C29.5102 57.4499 29.0302 56.7999 28.5202 56.4299C28.0002 56.0499 27.2202 55.7899 26.4002 55.4999C25.0002 55.0199 23.4102 54.4699 22.4202 53.1099C21.4402 51.7599 21.4102 50.0899 21.3802 48.6099C21.3602 47.7299 21.3502 46.8999 21.1502 46.2699C20.9602 45.6899 20.5002 45.0399 20.0102 44.3499C19.1402 43.1199 18.1602 41.7299 18.1602 39.9999C18.1602 38.2699 19.1402 36.8799 20.0102 35.6499C20.5002 34.9599 20.9602 34.2999 21.1502 33.7299C21.3502 33.1099 21.3702 32.2699 21.3802 31.3999C21.4102 29.9199 21.4402 28.2499 22.4202 26.8999C23.4102 25.5399 25.0002 24.9899 26.4002 24.5099C27.2302 24.2299 28.0102 23.9599 28.5202 23.5799C29.0302 23.2099 29.5102 22.5599 30.0302 21.8699C30.9202 20.6699 31.9402 19.3199 33.5602 18.7899C35.1202 18.2899 36.7102 18.7699 38.1102 19.1999C38.9702 19.4599 39.7702 19.7099 40.4502 19.7099C41.1302 19.7099 41.9402 19.4599 42.7902 19.1999C44.1902 18.7699 45.7802 18.2899 47.3402 18.7899C48.9602 19.3199 49.9702 20.6699 50.8702 21.8699C51.3902 22.5599 51.8702 23.2099 52.3802 23.5799C52.9002 23.9599 53.6802 24.2199 54.5002 24.5099C55.9002 24.9899 57.4902 25.5299 58.4802 26.8999C59.4602 28.2499 59.4902 29.9199 59.5202 31.3999C59.5402 32.2799 59.5502 33.1099 59.7502 33.7299C59.9402 34.3099 60.4002 34.9599 60.8902 35.6499C61.7602 36.8799 62.7402 38.2699 62.7402 39.9999C62.7402 41.7299 61.7602 43.1199 60.8902 44.3499C60.4002 45.0399 59.9402 45.6999 59.7502 46.2699C59.5502 46.8899 59.5302 47.7199 59.5202 48.5999C59.4902 50.0799 59.4602 51.7499 58.4802 53.0999C57.4902 54.4599 55.9002 54.9999 54.5002 55.4799C53.6702 55.7599 52.8902 56.0299 52.3802 56.4099C51.8702 56.7799 51.3902 57.4299 50.8702 58.1199C49.9802 59.3199 48.9602 60.6699 47.3402 61.1999C46.8602 61.3499 46.3902 61.4199 45.9102 61.4199V61.4299ZM40.4502 57.2999C41.5802 57.2999 42.6402 57.6299 43.6702 57.9399C44.7402 58.2699 45.7502 58.5799 46.4102 58.3599C47.1302 58.1299 47.7702 57.2599 48.4602 56.3399C49.0902 55.4999 49.7402 54.6299 50.6102 53.9999C51.4902 53.3599 52.5302 52.9999 53.5302 52.6599C54.6102 52.2899 55.6302 51.9399 56.0602 51.3499C56.4802 50.7699 56.5002 49.6999 56.5202 48.5599C56.5402 47.4999 56.5602 46.3999 56.9002 45.3499C57.2302 44.3399 57.8502 43.4699 58.4402 42.6199C59.1102 41.6799 59.7402 40.7799 59.7402 39.9999C59.7402 39.2199 59.1102 38.3299 58.4402 37.3799C57.8402 36.5399 57.2302 35.6599 56.9002 34.6499C56.5602 33.5999 56.5402 32.4999 56.5202 31.4399C56.5002 30.3099 56.4802 29.2399 56.0602 28.6499C55.6302 28.0499 54.6102 27.7099 53.5302 27.3399C52.5302 26.9999 51.5002 26.6399 50.6102 25.9999C49.7402 25.3699 49.0902 24.4999 48.4602 23.6599C47.7702 22.7399 47.1202 21.8699 46.4102 21.6399C45.7502 21.4199 44.7402 21.7299 43.6702 22.0599C42.6402 22.3699 41.5802 22.6999 40.4502 22.6999C39.3202 22.6999 38.2602 22.3699 37.2302 22.0599C36.1602 21.7299 35.1502 21.4199 34.4902 21.6399C33.7702 21.8699 33.1302 22.7399 32.4402 23.6599C31.8102 24.4999 31.1602 25.3699 30.2902 25.9999C29.4102 26.6399 28.3702 26.9999 27.3702 27.3399C26.2902 27.7099 25.2702 28.0599 24.8402 28.6499C24.4202 29.2299 24.4002 30.2999 24.3802 31.4299C24.3602 32.4899 24.3402 33.5899 24.0002 34.6399C23.6702 35.6499 23.0502 36.5199 22.4602 37.3699C21.7902 38.3099 21.1602 39.2099 21.1602 39.9899C21.1602 40.7699 21.7902 41.6599 22.4602 42.6099C23.0602 43.4499 23.6802 44.3299 24.0002 45.3399C24.3402 46.3899 24.3602 47.4899 24.3802 48.5499C24.4002 49.6799 24.4202 50.7499 24.8402 51.3299C25.2702 51.9299 26.2902 52.2699 27.3702 52.6399C28.3702 52.9799 29.4002 53.3399 30.2902 53.9799C31.1602 54.6099 31.8102 55.4799 32.4402 56.3199C33.1302 57.2399 33.7802 58.1099 34.4902 58.3399C35.1502 58.5499 36.1602 58.2499 37.2302 57.9199C38.2602 57.6099 39.3202 57.2799 40.4502 57.2799V57.2999Z" fill="#223FD7"/>
<path d="M40.4512 21.7198C39.6212 21.7198 38.9512 21.0498 38.9512 20.2198V15.0898C38.9512 14.2598 39.6212 13.5898 40.4512 13.5898C41.2812 13.5898 41.9512 14.2598 41.9512 15.0898V20.2198C41.9512 21.0498 41.2812 21.7198 40.4512 21.7198Z" fill="#223FD7"/>
<path d="M43.0109 14.6899H37.8809C37.0509 14.6899 36.3809 14.0199 36.3809 13.1899C36.3809 12.3599 37.0509 11.6899 37.8809 11.6899H43.0109C43.8409 11.6899 44.5109 12.3599 44.5109 13.1899C44.5109 14.0199 43.8409 14.6899 43.0109 14.6899Z" fill="#223FD7"/>
<path d="M59.0994 35.3301C58.4894 35.3301 57.9194 34.9601 57.6994 34.3601C57.4094 33.5801 57.7994 32.7201 58.5694 32.4301L63.3694 30.6101C64.1394 30.3201 65.0094 30.7101 65.2994 31.4801C65.5894 32.2601 65.1994 33.1201 64.4294 33.4101L59.6294 35.2301C59.4594 35.3001 59.2794 35.3301 59.0994 35.3301Z" fill="#223FD7"/>
<path d="M66.5893 35.25C65.9793 35.25 65.4093 34.88 65.1893 34.28L63.3693 29.48C63.0793 28.7 63.4693 27.84 64.2393 27.55C65.0193 27.26 65.8793 27.65 66.1693 28.42L67.9893 33.22C68.2793 34 67.8893 34.86 67.1193 35.15C66.9493 35.22 66.7693 35.25 66.5893 35.25Z" fill="#223FD7"/>
<path d="M55.2292 61.5502C54.7792 61.5502 54.3292 61.3502 54.0392 60.9602L50.9192 56.8902C50.4192 56.2302 50.5392 55.2902 51.1992 54.7902C51.8592 54.2802 52.7992 54.4102 53.2992 55.0702L56.4192 59.1402C56.9192 59.8002 56.7992 60.7402 56.1392 61.2402C55.8692 61.4502 55.5492 61.5502 55.2292 61.5502Z" fill="#223FD7"/>
<path d="M54.3494 64.6203C53.8994 64.6203 53.4494 64.4203 53.1594 64.0303C52.6594 63.3703 52.7794 62.4303 53.4394 61.9303L57.5094 58.8103C58.1694 58.3103 59.1094 58.4303 59.6094 59.0903C60.1094 59.7503 59.9894 60.6903 59.3294 61.1903L55.2594 64.3103C54.9894 64.5203 54.6694 64.6203 54.3494 64.6203Z" fill="#223FD7"/>
<path d="M26.6001 61.1299C26.2701 61.1299 25.9401 61.0199 25.6601 60.7999C25.0101 60.2799 24.9101 59.3399 25.4301 58.6899L28.6401 54.6899C29.1601 54.0399 30.1001 53.9399 30.7501 54.4599C31.4001 54.9799 31.5001 55.9199 30.9801 56.5699L27.7701 60.5699C27.4701 60.9399 27.0401 61.1299 26.6001 61.1299Z" fill="#223FD7"/>
<path d="M27.4204 64.2198C27.0904 64.2198 26.7604 64.1098 26.4804 63.8898L22.4804 60.6798C21.8304 60.1598 21.7304 59.2198 22.2504 58.5698C22.7704 57.9198 23.7104 57.8198 24.3604 58.3398L28.3604 61.5498C29.0104 62.0698 29.1104 63.0098 28.5904 63.6598C28.2904 64.0298 27.8604 64.2198 27.4204 64.2198Z" fill="#223FD7"/>
<path d="M20.9593 35.1404C20.8293 35.1404 20.6993 35.1204 20.5793 35.0904L15.6193 33.7804C14.8193 33.5704 14.3393 32.7504 14.5493 31.9504C14.7593 31.1504 15.5793 30.6704 16.3793 30.8804L21.3393 32.1904C22.1393 32.4004 22.6193 33.2204 22.4093 34.0204C22.2293 34.6904 21.6293 35.1404 20.9593 35.1404Z" fill="#223FD7"/>
<path d="M13.4993 35.8202C13.3693 35.8202 13.2393 35.8002 13.1193 35.7702C12.3193 35.5602 11.8393 34.7402 12.0493 33.9402L13.3593 28.9802C13.5693 28.1802 14.3893 27.7002 15.1893 27.9102C15.9893 28.1202 16.4693 28.9402 16.2593 29.7402L14.9493 34.7002C14.7693 35.3702 14.1693 35.8202 13.4993 35.8202Z" fill="#223FD7"/>
</g>
<defs>
<clipPath id="clip0_2425_43">
<rect width="80.09" height="80.09" fill="white"/>
</clipPath>
</defs>
</svg>
