<svg width="80" height="80" viewBox="0 0 80 80" fill="none" xmlns="http://www.w3.org/2000/svg">
<g clip-path="url(#clip0_2402_9809)">
<path d="M40 80C62.0914 80 80 62.0914 80 40C80 17.9086 62.0914 0 40 0C17.9086 0 0 17.9086 0 40C0 62.0914 17.9086 80 40 80Z" fill="#223FD7"/>
<path d="M76.85 40C76.85 60.3517 60.3517 76.85 40 76.85C19.6483 76.85 3.15 60.3517 3.15 40C3.15 19.6483 19.6483 3.15 40 3.15C60.3517 3.15 76.85 19.6483 76.85 40Z" fill="white" stroke="#223FD7" stroke-width="0.3"/>
<path d="M21.3096 46.69V33H29.8896V34.78H23.3696V38.95H29.4396V40.72H23.3696V44.91H29.9696V46.69H21.3096Z" fill="#223FD7"/>
<path d="M32.6594 33H35.1694L39.5294 43.64H39.6894L44.0494 33H46.5594V46.69H44.5894V36.78H44.4594L40.4194 46.67H38.7894L34.7494 36.78H34.6194V46.69H32.6494V33H32.6594Z" fill="#223FD7"/>
<path d="M49.5598 46.69V33H54.4398C55.4998 33 56.3798 33.18 57.0798 33.55C57.7798 33.92 58.3098 34.42 58.6498 35.06C58.9998 35.7 59.1698 36.45 59.1698 37.29C59.1698 38.13 58.9998 38.86 58.6498 39.5C58.2998 40.13 57.7698 40.63 57.0698 40.98C56.3698 41.33 55.4898 41.51 54.4298 41.51H50.7298V39.73H54.2398C54.9098 39.73 55.4498 39.63 55.8698 39.44C56.2898 39.25 56.5998 38.97 56.7998 38.61C56.9998 38.24 57.0898 37.81 57.0898 37.29C57.0898 36.77 56.9898 36.33 56.7898 35.95C56.5898 35.57 56.2798 35.28 55.8598 35.08C55.4398 34.88 54.8898 34.78 54.2098 34.78H51.6198V46.7H49.5498L49.5598 46.69ZM56.3198 40.51L59.6998 46.69H57.3498L54.0298 40.51H56.3198Z" fill="#223FD7"/>
</g>
<defs>
<clipPath id="clip0_2402_9809">
<rect width="80" height="80" fill="white"/>
</clipPath>
</defs>
</svg>
