<svg width="80" height="80" viewBox="0 0 80 80" fill="none" xmlns="http://www.w3.org/2000/svg">
<g clip-path="url(#clip0_2469_12571)">
<path d="M40 80C62.0914 80 80 62.0914 80 40C80 17.9086 62.0914 0 40 0C17.9086 0 0 17.9086 0 40C0 62.0914 17.9086 80 40 80Z" fill="#EB4723"/>
<path d="M76.85 40C76.85 60.3517 60.3517 76.85 40 76.85C19.6483 76.85 3.15 60.3517 3.15 40C3.15 19.6483 19.6483 3.15 40 3.15C60.3517 3.15 76.85 19.6483 76.85 40Z" fill="white" stroke="#EB4723" stroke-width="0.3"/>
<path d="M21.3086 46.69V33H29.8886V34.78H23.3686V38.95H29.4386V40.72H23.3686V44.91H29.9686V46.69H21.3086Z" fill="#EB4723"/>
<path d="M32.6584 33H35.1684L39.5284 43.64H39.6884L44.0484 33H46.5584V46.69H44.5884V36.78H44.4584L40.4184 46.67H38.7884L34.7484 36.78H34.6184V46.69H32.6484V33H32.6584Z" fill="#EB4723"/>
<path d="M49.5588 46.69V33H54.4388C55.4988 33 56.3788 33.18 57.0788 33.55C57.7788 33.92 58.3088 34.42 58.6488 35.06C58.9988 35.7 59.1688 36.45 59.1688 37.29C59.1688 38.13 58.9988 38.86 58.6488 39.5C58.2988 40.13 57.7688 40.63 57.0688 40.98C56.3688 41.33 55.4888 41.51 54.4288 41.51H50.7288V39.73H54.2388C54.9088 39.73 55.4488 39.63 55.8688 39.44C56.2888 39.25 56.5988 38.97 56.7988 38.61C56.9988 38.24 57.0888 37.81 57.0888 37.29C57.0888 36.77 56.9888 36.33 56.7888 35.95C56.5888 35.57 56.2788 35.28 55.8588 35.08C55.4388 34.88 54.8888 34.78 54.2088 34.78H51.6188V46.7H49.5488L49.5588 46.69ZM56.3188 40.51L59.6988 46.69H57.3488L54.0288 40.51H56.3188Z" fill="#EB4723"/>
</g>
<defs>
<clipPath id="clip0_2469_12571">
<rect width="80" height="80" fill="white"/>
</clipPath>
</defs>
</svg>
