<svg width="34" height="34" viewBox="0 0 34 34" fill="none" xmlns="http://www.w3.org/2000/svg">
<rect x="0.5" y="0.5" width="33" height="33" rx="7.5" fill="#FFF5F0" stroke="#EB4723"/>
<path d="M20.9771 9H12.9978C10.7934 9 9 10.7939 9 12.999V20.301C9 22.5061 10.7934 24.3 12.9978 24.3H20.9771C23.1815 24.3 24.9749 22.5061 24.9749 20.301V12.999C24.9749 10.7939 23.1815 9 20.9771 9ZM10.4103 12.999C10.4103 11.572 11.5712 10.4107 12.9978 10.4107H20.9771C22.4037 10.4107 23.5646 11.572 23.5646 12.999V20.301C23.5646 21.728 22.4037 22.8893 20.9771 22.8893H12.9978C11.5712 22.8893 10.4103 21.728 10.4103 20.301V12.999Z" fill="#EB4723"/>
<path d="M16.9877 20.3691C19.0376 20.3691 20.7063 18.7008 20.7063 16.6494C20.7063 14.598 19.0385 12.9297 16.9877 12.9297C14.9368 12.9297 13.269 14.598 13.269 16.6494C13.269 18.7008 14.9368 20.3691 16.9877 20.3691ZM16.9877 14.3413C18.2606 14.3413 19.296 15.377 19.296 16.6503C19.296 17.9236 18.2606 18.9593 16.9877 18.9593C15.7147 18.9593 14.6793 17.9236 14.6793 16.6503C14.6793 15.377 15.7147 14.3413 16.9877 14.3413Z" fill="#EB4723"/>
<path d="M21.0508 13.5298C21.6028 13.5298 22.0527 13.0807 22.0527 12.5276C22.0527 11.9745 21.6037 11.5254 21.0508 11.5254C20.4978 11.5254 20.0488 11.9745 20.0488 12.5276C20.0488 13.0807 20.4978 13.5298 21.0508 13.5298Z" fill="#EB4723"/>
</svg>
