<svg width="34" height="34" viewBox="0 0 34 34" fill="none" xmlns="http://www.w3.org/2000/svg">
<rect x="0.5" y="0.5" width="33" height="33" rx="7.5" fill="#FFF5F0" stroke="#EB4723"/>
<path d="M10.4834 12.6915C10.1605 12.3918 10 12.0208 10 11.5793C10 11.1379 10.1614 10.7506 10.4834 10.45C10.8062 10.1503 11.2217 10 11.7308 10C12.2399 10 12.6392 10.1503 12.9611 10.45C13.284 10.7497 13.4445 11.1268 13.4445 11.5793C13.4445 12.0319 13.2831 12.3918 12.9611 12.6915C12.6383 12.9912 12.2288 13.1415 11.7308 13.1415C11.2329 13.1415 10.8062 12.9912 10.4834 12.6915ZM13.1732 14.4108V23.6H10.2704V14.4108H13.1732Z" fill="#EB4723"/>
<path d="M22.8361 15.3157C23.4689 16.0028 23.7848 16.9457 23.7848 18.1463V23.4348H21.028V18.5191C21.028 17.9136 20.8709 17.443 20.5576 17.108C20.2442 16.7731 19.8218 16.6048 19.2929 16.6048C18.764 16.6048 18.3416 16.7722 18.0283 17.108C17.7149 17.443 17.5578 17.9136 17.5578 18.5191V23.4348H14.7847V14.3822H17.5578V15.5828C17.8385 15.1826 18.2172 14.8666 18.6928 14.6338C19.1684 14.4011 19.7033 14.2852 20.2983 14.2852C21.3577 14.2852 22.2042 14.6287 22.8361 15.3149V15.3157Z" fill="#EB4723"/>
</svg>
