<svg width="148" height="57" viewBox="0 0 148 57" fill="none" xmlns="http://www.w3.org/2000/svg">
<g clip-path="url(#clip0_951_1064)">
<path d="M67.7 25.3597V13.7197H72.29C73.17 13.7197 73.92 13.8797 74.54 14.1897C75.16 14.4997 75.64 14.9397 75.97 15.5097C76.3 16.0797 76.46 16.7497 76.46 17.5197C76.46 18.2897 76.29 18.9597 75.96 19.5097C75.63 20.0597 75.14 20.4897 74.51 20.7897C73.88 21.0897 73.12 21.2297 72.22 21.2297H69.15V19.2497H71.83C72.3 19.2497 72.69 19.1897 73 19.0597C73.31 18.9297 73.54 18.7397 73.7 18.4797C73.86 18.2197 73.93 17.8997 73.93 17.5197C73.93 17.1397 73.85 16.8097 73.7 16.5397C73.55 16.2797 73.31 16.0697 73 15.9297C72.69 15.7897 72.29 15.7197 71.82 15.7197H70.16V25.3397H67.7V25.3597ZM73.98 20.0597L76.87 25.3597H74.15L71.32 20.0597H73.97H73.98Z" fill="#010721"/>
<path d="M80.2099 25.3597H77.5699L81.5899 13.7197H84.7599L88.7699 25.3597H86.1299L83.2099 16.3797H83.1199L80.1999 25.3597H80.2099ZM80.0499 20.7897H86.2799V22.7097H80.0499V20.7897Z" fill="#010721"/>
<path d="M90.17 25.3597V13.7197H97.87V15.7497H92.63V18.5197H97.36V20.5497H92.63V25.3597H90.17Z" fill="#010721"/>
<path d="M109.55 17.0696C109.5 16.6096 109.31 16.2596 108.96 15.9996C108.62 15.7496 108.15 15.6196 107.56 15.6196C107.16 15.6196 106.82 15.6796 106.54 15.7896C106.26 15.8996 106.05 16.0596 105.91 16.2496C105.76 16.4496 105.69 16.6696 105.69 16.9196C105.69 17.1296 105.73 17.3096 105.82 17.4696C105.91 17.6296 106.05 17.7596 106.22 17.8696C106.39 17.9796 106.59 18.0796 106.81 18.1596C107.03 18.2396 107.27 18.3096 107.53 18.3696L108.58 18.6196C109.09 18.7296 109.55 18.8796 109.98 19.0696C110.41 19.2596 110.77 19.4896 111.08 19.7696C111.39 20.0496 111.63 20.3696 111.8 20.7496C111.97 21.1296 112.06 21.5496 112.06 22.0396C112.06 22.7496 111.88 23.3696 111.52 23.8896C111.16 24.4096 110.65 24.8096 109.98 25.0996C109.31 25.3896 108.5 25.5296 107.55 25.5296C106.6 25.5296 105.79 25.3896 105.1 25.0996C104.4 24.8096 103.86 24.3796 103.48 23.8196C103.09 23.2496 102.89 22.5496 102.87 21.7096H105.25C105.28 22.0996 105.39 22.4196 105.59 22.6796C105.79 22.9396 106.06 23.1296 106.39 23.2596C106.72 23.3896 107.1 23.4596 107.53 23.4596C107.96 23.4596 108.31 23.3996 108.62 23.2796C108.93 23.1596 109.17 22.9896 109.34 22.7696C109.51 22.5496 109.6 22.3096 109.6 22.0296C109.6 21.7696 109.52 21.5496 109.37 21.3696C109.22 21.1896 108.99 21.0396 108.7 20.9096C108.41 20.7896 108.05 20.6696 107.62 20.5696L106.35 20.2496C105.37 20.0096 104.6 19.6396 104.03 19.1296C103.46 18.6196 103.18 17.9396 103.18 17.0796C103.18 16.3696 103.36 15.7596 103.75 15.2296C104.14 14.6996 104.65 14.2896 105.32 13.9996C105.99 13.7096 106.74 13.5596 107.59 13.5596C108.44 13.5596 109.21 13.7096 109.85 13.9996C110.5 14.2996 111 14.7096 111.36 15.2296C111.72 15.7596 111.91 16.3696 111.92 17.0596H109.56L109.55 17.0696Z" fill="#010721"/>
<path d="M117.61 25.5295C116.72 25.5295 115.95 25.3395 115.31 24.9595C114.67 24.5795 114.18 24.0495 113.83 23.3695C113.49 22.6895 113.32 21.9095 113.32 21.0295C113.32 20.1495 113.49 19.3495 113.84 18.6695C114.19 17.9895 114.68 17.4595 115.32 17.0895C115.96 16.7095 116.72 16.5195 117.6 16.5195C118.36 16.5195 119.03 16.6595 119.6 16.9395C120.17 17.2195 120.62 17.5995 120.96 18.0995C121.29 18.5995 121.48 19.1895 121.51 19.8595H119.23C119.17 19.4195 119 19.0695 118.72 18.8095C118.44 18.5395 118.09 18.4095 117.64 18.4095C117.26 18.4095 116.94 18.5095 116.66 18.7095C116.38 18.9095 116.16 19.2095 116.01 19.5895C115.85 19.9795 115.78 20.4395 115.78 20.9895C115.78 21.5395 115.86 22.0195 116.01 22.4095C116.16 22.7995 116.38 23.0995 116.66 23.2995C116.94 23.4995 117.27 23.6095 117.64 23.6095C117.92 23.6095 118.17 23.5495 118.39 23.4395C118.61 23.3295 118.8 23.1595 118.94 22.9395C119.09 22.7195 119.18 22.4595 119.23 22.1495H121.51C121.47 22.8195 121.29 23.3995 120.97 23.9095C120.65 24.4195 120.2 24.8095 119.63 25.0895C119.06 25.3695 118.39 25.5195 117.61 25.5195V25.5295Z" fill="#010721"/>
<path d="M127.01 25.5298C126.13 25.5298 125.37 25.3398 124.72 24.9598C124.08 24.5798 123.58 24.0598 123.23 23.3798C122.88 22.6998 122.71 21.9198 122.71 21.0298C122.71 20.1398 122.88 19.3398 123.23 18.6598C123.58 17.9798 124.07 17.4598 124.72 17.0798C125.36 16.6998 126.12 16.5098 127.01 16.5098C127.9 16.5098 128.65 16.6998 129.3 17.0798C129.94 17.4598 130.44 17.9798 130.79 18.6598C131.14 19.3398 131.31 20.1198 131.31 21.0298C131.31 21.9398 131.14 22.7098 130.79 23.3798C130.44 24.0598 129.95 24.5798 129.3 24.9598C128.66 25.3398 127.9 25.5298 127.01 25.5298ZM127.02 23.6498C127.42 23.6498 127.76 23.5298 128.02 23.3098C128.29 23.0798 128.49 22.7698 128.63 22.3698C128.77 21.9698 128.84 21.5198 128.84 21.0098C128.84 20.4998 128.77 20.0498 128.63 19.6498C128.49 19.2498 128.29 18.9398 128.02 18.7098C127.75 18.4798 127.42 18.3598 127.02 18.3598C126.62 18.3598 126.27 18.4798 126 18.7098C125.73 18.9398 125.52 19.2498 125.38 19.6498C125.24 20.0498 125.17 20.4998 125.17 21.0098C125.17 21.5198 125.24 21.9698 125.38 22.3698C125.52 22.7698 125.72 23.0798 126 23.3098C126.27 23.5398 126.61 23.6498 127.02 23.6498Z" fill="#010721"/>
<path d="M132.89 25.36V16.63H135.24V18.15H135.33C135.49 17.61 135.76 17.2 136.13 16.92C136.5 16.64 136.94 16.5 137.43 16.5C137.55 16.5 137.68 16.5 137.82 16.52C137.96 16.53 138.08 16.56 138.19 16.58V18.73C138.08 18.7 137.92 18.67 137.72 18.64C137.52 18.61 137.34 18.6 137.17 18.6C136.81 18.6 136.5 18.68 136.22 18.83C135.94 18.98 135.72 19.2 135.56 19.47C135.4 19.74 135.32 20.06 135.32 20.41V25.35H132.9L132.89 25.36Z" fill="#010721"/>
<path d="M142.99 25.5295C142.09 25.5295 141.32 25.3495 140.67 24.9795C140.02 24.6095 139.53 24.0995 139.18 23.4195C138.83 22.7495 138.66 21.9495 138.66 21.0295C138.66 20.1095 138.83 19.3395 139.18 18.6695C139.53 17.9895 140.02 17.4595 140.65 17.0895C141.28 16.7095 142.03 16.5195 142.89 16.5195C143.47 16.5195 144 16.6095 144.5 16.7995C145 16.9895 145.43 17.2595 145.81 17.6295C146.18 17.9995 146.47 18.4595 146.68 19.0095C146.89 19.5695 146.99 20.2095 146.99 20.9595V21.6295H139.62V20.1295H144.71C144.71 19.7795 144.63 19.4695 144.48 19.1995C144.33 18.9295 144.12 18.7195 143.85 18.5695C143.58 18.4195 143.27 18.3395 142.92 18.3395C142.57 18.3395 142.23 18.4195 141.95 18.5895C141.67 18.7595 141.45 18.9795 141.29 19.2695C141.13 19.5595 141.05 19.8695 141.05 20.2095V21.6395C141.05 22.0695 141.13 22.4395 141.29 22.7595C141.45 23.0795 141.68 23.3195 141.97 23.4895C142.27 23.6595 142.62 23.7395 143.02 23.7395C143.29 23.7395 143.53 23.6995 143.76 23.6295C143.99 23.5595 144.18 23.4395 144.33 23.2895C144.49 23.1395 144.61 22.9495 144.69 22.7295L146.93 22.8795C146.82 23.4195 146.58 23.8895 146.23 24.2895C145.88 24.6895 145.43 24.9995 144.88 25.2195C144.33 25.4395 143.69 25.5495 142.97 25.5495L142.99 25.5295Z" fill="#010721"/>
<path d="M77.97 35.3994H75.48C75.43 35.0794 75.34 34.7894 75.2 34.5394C75.06 34.2894 74.88 34.0694 74.66 33.8894C74.44 33.7094 74.19 33.5794 73.9 33.4794C73.61 33.3794 73.3 33.3394 72.97 33.3394C72.37 33.3394 71.84 33.4894 71.4 33.7894C70.95 34.0894 70.61 34.5194 70.36 35.0794C70.11 35.6494 69.99 36.3294 69.99 37.1394C69.99 37.9494 70.11 38.6694 70.36 39.2294C70.61 39.7894 70.96 40.2194 71.4 40.5094C71.85 40.7994 72.36 40.9394 72.95 40.9394C73.28 40.9394 73.59 40.8994 73.87 40.8094C74.15 40.7194 74.4 40.5994 74.62 40.4294C74.84 40.2594 75.02 40.0594 75.17 39.8094C75.32 39.5694 75.42 39.2894 75.47 38.9794H77.96C77.9 39.5294 77.74 40.0394 77.48 40.5294C77.23 41.0194 76.88 41.4694 76.45 41.8494C76.02 42.2394 75.51 42.5494 74.92 42.7694C74.33 42.9894 73.66 43.1094 72.91 43.1094C71.87 43.1094 70.95 42.8694 70.13 42.3994C69.31 41.9294 68.67 41.2494 68.2 40.3594C67.73 39.4694 67.49 38.3894 67.49 37.1294C67.49 35.8694 67.73 34.7794 68.21 33.8894C68.69 32.9994 69.33 32.3194 70.15 31.8494C70.97 31.3794 71.89 31.1494 72.91 31.1494C73.58 31.1494 74.21 31.2394 74.79 31.4294C75.37 31.6194 75.88 31.8994 76.33 32.2594C76.78 32.6194 77.14 33.0594 77.42 33.5894C77.7 34.1094 77.88 34.7094 77.96 35.3894L77.97 35.3994Z" fill="#010721"/>
<path d="M82.18 43.1191C81.62 43.1191 81.13 43.0191 80.69 42.8291C80.25 42.6391 79.91 42.3491 79.66 41.9591C79.41 41.5691 79.28 41.0991 79.28 40.5191C79.28 40.0391 79.37 39.6291 79.55 39.2991C79.73 38.9691 79.97 38.7091 80.28 38.5091C80.59 38.3091 80.94 38.1591 81.33 38.0491C81.72 37.9491 82.13 37.8791 82.57 37.8291C83.08 37.7791 83.49 37.7291 83.8 37.6791C84.11 37.6291 84.34 37.5591 84.48 37.4691C84.62 37.3791 84.69 37.2291 84.69 37.0491V37.0191C84.69 36.6591 84.58 36.3791 84.35 36.1891C84.13 35.9891 83.81 35.8891 83.39 35.8891C82.95 35.8891 82.61 35.9891 82.35 36.1791C82.09 36.3691 81.92 36.6091 81.84 36.8991L79.6 36.7191C79.71 36.1891 79.94 35.7291 80.27 35.3391C80.6 34.9491 81.03 34.6491 81.56 34.4391C82.09 34.2291 82.7 34.1191 83.4 34.1191C83.88 34.1191 84.35 34.1791 84.79 34.2891C85.24 34.3991 85.63 34.5791 85.98 34.8191C86.33 35.0591 86.6 35.3591 86.8 35.7391C87 36.1091 87.1 36.5591 87.1 37.0791V42.9691H84.81V41.7591H84.74C84.6 42.0291 84.41 42.2691 84.18 42.4791C83.94 42.6891 83.66 42.8491 83.33 42.9591C83 43.0791 82.62 43.1291 82.19 43.1291L82.18 43.1191ZM82.87 41.4491C83.23 41.4491 83.54 41.3791 83.81 41.2391C84.08 41.0991 84.3 40.9091 84.45 40.6591C84.61 40.4191 84.68 40.1391 84.68 39.8391V38.9091C84.6 38.9591 84.5 38.9991 84.37 39.0391C84.24 39.0791 84.09 39.1191 83.93 39.1491C83.77 39.1791 83.6 39.2091 83.44 39.2291C83.28 39.2491 83.13 39.2791 83 39.2991C82.72 39.3391 82.47 39.4091 82.26 39.4991C82.05 39.5891 81.88 39.7091 81.77 39.8691C81.65 40.0191 81.59 40.2091 81.59 40.4391C81.59 40.7691 81.71 41.0191 81.95 41.1891C82.19 41.3591 82.5 41.4491 82.87 41.4491Z" fill="#010721"/>
<path d="M91.4 31.3193V42.9593H88.98V31.3193H91.4Z" fill="#010721"/>
<path d="M97.27 43.1291C96.38 43.1291 95.61 42.9391 94.97 42.5591C94.33 42.1791 93.84 41.6491 93.49 40.9691C93.15 40.2891 92.98 39.5091 92.98 38.6291C92.98 37.7491 93.15 36.9491 93.5 36.2691C93.85 35.5891 94.34 35.0591 94.98 34.6891C95.62 34.3091 96.38 34.1191 97.26 34.1191C98.02 34.1191 98.69 34.2591 99.26 34.5391C99.83 34.8191 100.28 35.1991 100.62 35.6991C100.95 36.1991 101.14 36.7891 101.17 37.4591H98.89C98.83 37.0191 98.66 36.6691 98.38 36.4091C98.1 36.1391 97.75 36.0091 97.3 36.0091C96.92 36.0091 96.6 36.1091 96.32 36.3091C96.04 36.5091 95.82 36.8091 95.67 37.1891C95.51 37.5791 95.44 38.0391 95.44 38.5891C95.44 39.1391 95.52 39.6191 95.67 40.0091C95.82 40.3991 96.04 40.6991 96.32 40.8991C96.6 41.0991 96.93 41.2091 97.3 41.2091C97.58 41.2091 97.83 41.1491 98.05 41.0391C98.27 40.9291 98.46 40.7591 98.6 40.5391C98.75 40.3191 98.84 40.0591 98.89 39.7491H101.17C101.13 40.4191 100.95 40.9991 100.63 41.5091C100.31 42.0191 99.86 42.4091 99.29 42.6891C98.72 42.9691 98.05 43.1191 97.27 43.1191V43.1291Z" fill="#010721"/>
<path d="M108.32 39.2395V34.2295H110.74V42.9595H108.42V41.3795H108.33C108.13 41.8895 107.81 42.2995 107.35 42.6095C106.89 42.9195 106.34 43.0795 105.68 43.0795C105.1 43.0795 104.58 42.9495 104.14 42.6795C103.7 42.4195 103.35 42.0395 103.1 41.5495C102.85 41.0595 102.73 40.4795 102.72 39.7895V34.2295H105.14V39.3495C105.14 39.8695 105.28 40.2695 105.55 40.5695C105.82 40.8695 106.19 41.0195 106.65 41.0195C106.94 41.0195 107.21 40.9495 107.47 40.8195C107.72 40.6895 107.93 40.4895 108.09 40.2195C108.25 39.9595 108.32 39.6295 108.32 39.2395Z" fill="#010721"/>
<path d="M115.1 31.3193V42.9593H112.68V31.3193H115.1Z" fill="#010721"/>
<path d="M119.52 43.1191C118.96 43.1191 118.47 43.0191 118.03 42.8291C117.59 42.6391 117.25 42.3491 117 41.9591C116.75 41.5691 116.62 41.0991 116.62 40.5191C116.62 40.0391 116.71 39.6291 116.89 39.2991C117.07 38.9691 117.31 38.7091 117.62 38.5091C117.93 38.3091 118.28 38.1591 118.67 38.0491C119.06 37.9491 119.47 37.8791 119.91 37.8291C120.42 37.7791 120.83 37.7291 121.14 37.6791C121.45 37.6291 121.68 37.5591 121.82 37.4691C121.96 37.3791 122.03 37.2291 122.03 37.0491V37.0191C122.03 36.6591 121.92 36.3791 121.69 36.1891C121.47 35.9891 121.15 35.8891 120.73 35.8891C120.29 35.8891 119.95 35.9891 119.69 36.1791C119.43 36.3691 119.26 36.6091 119.18 36.8991L116.94 36.7191C117.05 36.1891 117.28 35.7291 117.61 35.3391C117.94 34.9491 118.37 34.6491 118.9 34.4391C119.43 34.2291 120.04 34.1191 120.74 34.1191C121.22 34.1191 121.69 34.1791 122.13 34.2891C122.58 34.3991 122.97 34.5791 123.32 34.8191C123.67 35.0591 123.94 35.3591 124.14 35.7391C124.34 36.1091 124.44 36.5591 124.44 37.0791V42.9691H122.15V41.7591H122.08C121.94 42.0291 121.75 42.2691 121.52 42.4791C121.28 42.6891 121 42.8491 120.67 42.9591C120.34 43.0791 119.96 43.1291 119.53 43.1291L119.52 43.1191ZM120.21 41.4491C120.57 41.4491 120.88 41.3791 121.15 41.2391C121.42 41.0991 121.64 40.9091 121.79 40.6591C121.95 40.4191 122.02 40.1391 122.02 39.8391V38.9091C121.94 38.9591 121.84 38.9991 121.71 39.0391C121.58 39.0791 121.43 39.1191 121.27 39.1491C121.11 39.1791 120.94 39.2091 120.78 39.2291C120.62 39.2491 120.47 39.2791 120.34 39.2991C120.06 39.3391 119.81 39.4091 119.6 39.4991C119.39 39.5891 119.22 39.7091 119.11 39.8691C118.99 40.0191 118.93 40.2091 118.93 40.4391C118.93 40.7691 119.05 41.0191 119.29 41.1891C119.53 41.3591 119.84 41.4491 120.21 41.4491Z" fill="#010721"/>
<path d="M130.95 34.2299V36.0499H125.69V34.2299H130.95ZM126.89 32.1399H129.31V40.2799C129.31 40.4999 129.34 40.6799 129.41 40.7999C129.48 40.9199 129.57 41.0099 129.7 41.0599C129.83 41.1099 129.97 41.1299 130.13 41.1299C130.24 41.1299 130.36 41.1199 130.47 41.0999C130.58 41.0799 130.67 41.0599 130.73 41.0499L131.11 42.8499C130.99 42.8899 130.82 42.9299 130.6 42.9799C130.38 43.0299 130.11 43.0599 129.8 43.0699C129.22 43.0899 128.71 43.0199 128.27 42.8399C127.83 42.6599 127.49 42.3799 127.25 42.0099C127.01 41.6399 126.89 41.1599 126.89 40.5899V32.1299V32.1399Z" fill="#010721"/>
<path d="M136.38 43.1294C135.5 43.1294 134.74 42.9394 134.09 42.5594C133.45 42.1794 132.95 41.6594 132.6 40.9794C132.25 40.2994 132.08 39.5194 132.08 38.6294C132.08 37.7394 132.25 36.9394 132.6 36.2594C132.95 35.5794 133.44 35.0594 134.09 34.6794C134.73 34.2994 135.49 34.1094 136.38 34.1094C137.27 34.1094 138.02 34.2994 138.67 34.6794C139.31 35.0594 139.81 35.5794 140.16 36.2594C140.51 36.9394 140.68 37.7194 140.68 38.6294C140.68 39.5394 140.51 40.3094 140.16 40.9794C139.81 41.6594 139.32 42.1794 138.67 42.5594C138.03 42.9394 137.27 43.1294 136.38 43.1294ZM136.39 41.2494C136.79 41.2494 137.13 41.1294 137.39 40.9094C137.66 40.6794 137.86 40.3694 138 39.9694C138.14 39.5694 138.21 39.1194 138.21 38.6094C138.21 38.0994 138.14 37.6494 138 37.2494C137.86 36.8494 137.66 36.5394 137.39 36.3094C137.12 36.0794 136.79 35.9594 136.39 35.9594C135.99 35.9594 135.64 36.0794 135.37 36.3094C135.1 36.5394 134.89 36.8494 134.75 37.2494C134.61 37.6494 134.54 38.0994 134.54 38.6094C134.54 39.1194 134.61 39.5694 134.75 39.9694C134.89 40.3694 135.09 40.6794 135.37 40.9094C135.64 41.1394 135.98 41.2494 136.39 41.2494Z" fill="#010721"/>
<path d="M142.26 42.9596V34.2296H144.61V35.7496H144.7C144.86 35.2096 145.13 34.7996 145.5 34.5196C145.87 34.2396 146.31 34.0996 146.8 34.0996C146.92 34.0996 147.05 34.0996 147.19 34.1196C147.33 34.1296 147.45 34.1596 147.56 34.1796V36.3296C147.45 36.2996 147.29 36.2696 147.09 36.2396C146.89 36.2096 146.71 36.1996 146.54 36.1996C146.18 36.1996 145.87 36.2796 145.59 36.4296C145.31 36.5796 145.09 36.7996 144.93 37.0696C144.77 37.3396 144.69 37.6596 144.69 38.0096V42.9496H142.27L142.26 42.9596Z" fill="#010721"/>
<path d="M56.69 4.11V52.6C56.69 54.86 54.86 56.68 52.6 56.68H4.11C1.82 56.68 0 54.85 0 52.6V4.11C0 1.85 1.83 0 4.11 0H52.6C54.86 0 56.69 1.85 56.69 4.11Z" fill="#092BD3"/>
<path d="M24.73 13.9199H12.06C11.1543 13.9199 10.42 14.6542 10.42 15.5599V41.1399C10.42 42.0457 11.1543 42.7799 12.06 42.7799H24.73C25.6358 42.7799 26.37 42.0457 26.37 41.1399V15.5599C26.37 14.6542 25.6358 13.9199 24.73 13.9199Z" fill="#F3F6FF"/>
<path d="M29.54 13.9004H43.84C44.75 13.9004 45.48 14.6404 45.48 15.5404V31.3704C45.48 32.2804 44.74 33.0104 43.84 33.0104H31.18C30.27 33.0104 29.54 32.2704 29.54 31.3704V13.9004Z" fill="#F3F6FF"/>
<path d="M29.54 36.1797H43.84C44.75 36.1797 45.48 36.9197 45.48 37.8197V41.1297C45.48 42.0397 44.74 42.7697 43.84 42.7697H31.18C30.27 42.7697 29.54 42.0297 29.54 41.1297V36.1797Z" fill="#F3F6FF"/>
<path d="M24.58 16.0596H12.21C11.9781 16.0596 11.79 16.2476 11.79 16.4796V24.4596C11.79 24.6915 11.9781 24.8796 12.21 24.8796H24.58C24.812 24.8796 25 24.6915 25 24.4596V16.4796C25 16.2476 24.812 16.0596 24.58 16.0596Z" fill="#092BD3"/>
</g>
<defs>
<clipPath id="clip0_951_1064">
<rect width="147.55" height="56.69" fill="white"/>
</clipPath>
</defs>
</svg>
