<svg width="80" height="80" viewBox="0 0 80 80" fill="none" xmlns="http://www.w3.org/2000/svg">
<g clip-path="url(#clip0_2469_12550)">
<path d="M40 80C62.0914 80 80 62.0914 80 40C80 17.9086 62.0914 0 40 0C17.9086 0 0 17.9086 0 40C0 62.0914 17.9086 80 40 80Z" fill="#EB4723"/>
<path d="M40 77.1C60.4898 77.1 77.1 60.4898 77.1 40C77.1 19.5102 60.4898 2.9 40 2.9C19.5102 2.9 2.9 19.5102 2.9 40C2.9 60.4898 19.5102 77.1 40 77.1Z" fill="white" stroke="white" stroke-width="0.2"/>
<path d="M40.1192 41.06C43.3887 41.06 46.0392 38.4095 46.0392 35.14C46.0392 31.8704 43.3887 29.22 40.1192 29.22C36.8497 29.22 34.1992 31.8704 34.1992 35.14C34.1992 38.4095 36.8497 41.06 40.1192 41.06Z" fill="#EB4723"/>
<path d="M49.8404 50.7801H30.4004C30.4004 45.4101 34.7504 41.0601 40.1204 41.0601C45.4904 41.0601 49.8404 45.4101 49.8404 50.7801Z" fill="#EB4723"/>
<path d="M54.2794 41.06C57.5489 41.06 60.1994 38.4095 60.1994 35.14C60.1994 31.8704 57.5489 29.22 54.2794 29.22C51.0098 29.22 48.3594 31.8704 48.3594 35.14C48.3594 38.4095 51.0098 41.06 54.2794 41.06Z" fill="#EB4723"/>
<path d="M63.9986 50.7801H44.5586C44.5586 45.4101 48.9086 41.0601 54.2786 41.0601C59.6486 41.0601 63.9986 45.4101 63.9986 50.7801Z" fill="#EB4723"/>
<path d="M25.7208 41.06C28.9903 41.06 31.6408 38.4095 31.6408 35.14C31.6408 31.8704 28.9903 29.22 25.7208 29.22C22.4513 29.22 19.8008 31.8704 19.8008 35.14C19.8008 38.4095 22.4513 41.06 25.7208 41.06Z" fill="#EB4723"/>
<path d="M35.44 50.7801H16C16 45.4101 20.35 41.0601 25.72 41.0601C31.09 41.0601 35.44 45.4101 35.44 50.7801Z" fill="#EB4723"/>
</g>
<defs>
<clipPath id="clip0_2469_12550">
<rect width="80" height="80" fill="white"/>
</clipPath>
</defs>
</svg>
