<svg width="80" height="80" viewBox="0 0 80 80" fill="none" xmlns="http://www.w3.org/2000/svg">
<g clip-path="url(#clip0_2402_9785)">
<path d="M40 80C62.0914 80 80 62.0914 80 40C80 17.9086 62.0914 0 40 0C17.9086 0 0 17.9086 0 40C0 62.0914 17.9086 80 40 80Z" fill="#223FD7"/>
<path d="M40 77.1C60.4898 77.1 77.1 60.4898 77.1 40C77.1 19.5102 60.4898 2.9 40 2.9C19.5102 2.9 2.9 19.5102 2.9 40C2.9 60.4898 19.5102 77.1 40 77.1Z" fill="white" stroke="white" stroke-width="0.2"/>
<path d="M40.1202 41.06C43.3897 41.06 46.0402 38.4095 46.0402 35.14C46.0402 31.8704 43.3897 29.22 40.1202 29.22C36.8507 29.22 34.2002 31.8704 34.2002 35.14C34.2002 38.4095 36.8507 41.06 40.1202 41.06Z" fill="#223FD7"/>
<path d="M49.8404 50.78H30.4004C30.4004 45.41 34.7504 41.06 40.1204 41.06C45.4904 41.06 49.8404 45.41 49.8404 50.78Z" fill="#223FD7"/>
<path d="M54.2803 41.06C57.5499 41.06 60.2004 38.4095 60.2004 35.14C60.2004 31.8704 57.5499 29.22 54.2803 29.22C51.0108 29.22 48.3604 31.8704 48.3604 35.14C48.3604 38.4095 51.0108 41.06 54.2803 41.06Z" fill="#223FD7"/>
<path d="M63.9996 50.78H44.5596C44.5596 45.41 48.9096 41.06 54.2796 41.06C59.6496 41.06 63.9996 45.41 63.9996 50.78Z" fill="#223FD7"/>
<path d="M25.7198 41.06C28.9893 41.06 31.6398 38.4095 31.6398 35.14C31.6398 31.8704 28.9893 29.22 25.7198 29.22C22.4503 29.22 19.7998 31.8704 19.7998 35.14C19.7998 38.4095 22.4503 41.06 25.7198 41.06Z" fill="#223FD7"/>
<path d="M35.44 50.78H16C16 45.41 20.35 41.06 25.72 41.06C31.09 41.06 35.44 45.41 35.44 50.78Z" fill="#223FD7"/>
</g>
<defs>
<clipPath id="clip0_2402_9785">
<rect width="80" height="80" fill="white"/>
</clipPath>
</defs>
</svg>
