<svg width="105" height="40" viewBox="0 0 105 40" fill="none" xmlns="http://www.w3.org/2000/svg">
<g clip-path="url(#clip0_2306_517)">
<path d="M47.7686 17.8928V9.67969H51.0072C51.6281 9.67969 52.1573 9.79258 52.5948 10.0113C53.0323 10.23 53.371 10.5405 53.6038 10.9427C53.8366 11.3449 53.9495 11.8176 53.9495 12.3609C53.9495 12.9042 53.8296 13.377 53.5967 13.7651C53.3639 14.1531 53.0182 14.4565 52.5736 14.6682C52.1291 14.8799 51.5929 14.9787 50.9578 14.9787H48.7917V13.5816H50.6827C51.0143 13.5816 51.2895 13.5393 51.5082 13.4475C51.7269 13.3558 51.8892 13.2218 52.0021 13.0383C52.115 12.8549 52.1644 12.6291 52.1644 12.3609C52.1644 12.0928 52.1079 11.86 52.0021 11.6695C51.8963 11.486 51.7269 11.3378 51.5082 11.239C51.2895 11.1403 51.0072 11.0909 50.6756 11.0909H49.5043V17.8787H47.7686V17.8928ZM52.1997 14.1531L54.2388 17.8928H52.3196L50.3228 14.1531H52.1926H52.1997Z" fill="#010721"/>
<path d="M56.5957 17.8928H54.7329L57.5694 9.67969H59.8061L62.6355 17.8928H60.7728L58.7124 11.5566H58.6489L56.5886 17.8928H56.5957ZM56.4828 14.6682H60.8786V16.023H56.4828V14.6682Z" fill="#010721"/>
<path d="M63.623 17.8928V9.67969H69.0561V11.112H65.3588V13.0665H68.6963V14.4989H65.3588V17.8928H63.623Z" fill="#010721"/>
<path d="M77.2978 12.044C77.2625 11.7194 77.1285 11.4725 76.8815 11.289C76.6416 11.1126 76.31 11.0209 75.8937 11.0209C75.6115 11.0209 75.3716 11.0632 75.174 11.1409C74.9764 11.2185 74.8283 11.3314 74.7295 11.4654C74.6236 11.6065 74.5742 11.7618 74.5742 11.9382C74.5742 12.0863 74.6025 12.2134 74.666 12.3262C74.7295 12.4391 74.8283 12.5309 74.9482 12.6085C75.0682 12.6861 75.2093 12.7567 75.3645 12.8131C75.5197 12.8696 75.6891 12.9189 75.8725 12.9613L76.6134 13.1377C76.9733 13.2153 77.2978 13.3211 77.6012 13.4552C77.9046 13.5893 78.1586 13.7515 78.3774 13.9491C78.5961 14.1467 78.7655 14.3725 78.8854 14.6406C79.0054 14.9087 79.0689 15.2051 79.0689 15.5508C79.0689 16.0518 78.9419 16.4892 78.6878 16.8561C78.4338 17.2231 78.074 17.5053 77.6012 17.7099C77.1285 17.9145 76.557 18.0133 75.8866 18.0133C75.2163 18.0133 74.6448 17.9145 74.1579 17.7099C73.664 17.5053 73.283 17.2019 73.0149 16.8068C72.7397 16.4046 72.5986 15.9107 72.5845 15.318H74.2638C74.2849 15.5931 74.3626 15.8189 74.5037 16.0024C74.6448 16.1858 74.8353 16.3199 75.0682 16.4116C75.301 16.5034 75.5691 16.5527 75.8725 16.5527C76.1759 16.5527 76.4229 16.5104 76.6416 16.4257C76.8604 16.3411 77.0297 16.2211 77.1496 16.0659C77.2696 15.9107 77.3331 15.7413 77.3331 15.5437C77.3331 15.3603 77.2767 15.2051 77.1708 15.0781C77.065 14.951 76.9027 14.8452 76.6981 14.7535C76.4934 14.6688 76.2394 14.5841 75.936 14.5136L75.0399 14.2878C74.3484 14.1184 73.8051 13.8574 73.403 13.4975C73.0008 13.1377 72.8032 12.6579 72.8032 12.0511C72.8032 11.5501 72.9302 11.1197 73.2054 10.7457C73.4806 10.3718 73.8404 10.0825 74.3132 9.87784C74.7859 9.67322 75.3151 9.56738 75.9149 9.56738C76.5146 9.56738 77.0579 9.67322 77.5095 9.87784C77.9681 10.0895 78.3209 10.3788 78.5749 10.7457C78.829 11.1197 78.963 11.5501 78.9701 12.037H77.3049L77.2978 12.044Z" fill="#010721"/>
<path d="M82.985 18.0136C82.357 18.0136 81.8137 17.8796 81.3621 17.6114C80.9106 17.3433 80.5648 16.9694 80.3179 16.4896C80.078 16.0098 79.958 15.4594 79.958 14.8385C79.958 14.2175 80.078 13.6531 80.3249 13.1733C80.5719 12.6935 80.9176 12.3195 81.3692 12.0584C81.8208 11.7903 82.357 11.6562 82.9779 11.6562C83.5142 11.6562 83.9869 11.755 84.3891 11.9526C84.7913 12.1502 85.1088 12.4183 85.3487 12.7711C85.5816 13.1239 85.7156 13.5402 85.7368 14.0129H84.1281C84.0857 13.7025 83.9658 13.4555 83.7682 13.2721C83.5706 13.0815 83.3237 12.9898 83.0062 12.9898C82.738 12.9898 82.5123 13.0604 82.3147 13.2015C82.1171 13.3426 81.9619 13.5543 81.8561 13.8224C81.7432 14.0976 81.6938 14.4222 81.6938 14.8102C81.6938 15.1983 81.7502 15.537 81.8561 15.8122C81.9619 16.0874 82.1171 16.299 82.3147 16.4402C82.5123 16.5813 82.7451 16.6589 83.0062 16.6589C83.2037 16.6589 83.3801 16.6166 83.5354 16.5389C83.6906 16.4613 83.8247 16.3414 83.9234 16.1861C84.0293 16.0309 84.0928 15.8475 84.1281 15.6287H85.7368C85.7086 16.1015 85.5816 16.5107 85.3558 16.8706C85.13 17.2304 84.8125 17.5056 84.4103 17.7032C84.0081 17.9007 83.5354 18.0066 82.985 18.0066V18.0136Z" fill="#010721"/>
<path d="M89.6175 18.0129C88.9966 18.0129 88.4604 17.8788 88.0017 17.6107C87.5502 17.3426 87.1974 16.9757 86.9504 16.4959C86.7034 16.016 86.5835 15.4657 86.5835 14.8377C86.5835 14.2097 86.7034 13.6453 86.9504 13.1655C87.1974 12.6857 87.5431 12.3187 88.0017 12.0506C88.4533 11.7825 88.9896 11.6484 89.6175 11.6484C90.2455 11.6484 90.7747 11.7825 91.2333 12.0506C91.6849 12.3187 92.0377 12.6857 92.2847 13.1655C92.5316 13.6453 92.6516 14.1956 92.6516 14.8377C92.6516 15.4798 92.5316 16.0231 92.2847 16.4959C92.0377 16.9757 91.692 17.3426 91.2333 17.6107C90.7818 17.8788 90.2455 18.0129 89.6175 18.0129ZM89.6246 16.6864C89.9068 16.6864 90.1467 16.6017 90.3302 16.4465C90.5207 16.2842 90.6618 16.0654 90.7606 15.7832C90.8594 15.501 90.9088 15.1835 90.9088 14.8236C90.9088 14.4637 90.8594 14.1462 90.7606 13.864C90.6618 13.5818 90.5207 13.363 90.3302 13.2007C90.1397 13.0385 89.9068 12.9538 89.6246 12.9538C89.3424 12.9538 89.0954 13.0385 88.9049 13.2007C88.7144 13.363 88.5662 13.5818 88.4674 13.864C88.3686 14.1462 88.3193 14.4637 88.3193 14.8236C88.3193 15.1835 88.3686 15.501 88.4674 15.7832C88.5662 16.0654 88.7073 16.2842 88.9049 16.4465C89.0954 16.6087 89.3353 16.6864 89.6246 16.6864Z" fill="#010721"/>
<path d="M93.7661 17.8941V11.7343H95.4243V12.8068H95.4878C95.6007 12.4258 95.7912 12.1365 96.0522 11.9389C96.3133 11.7414 96.6238 11.6426 96.9695 11.6426C97.0542 11.6426 97.1459 11.6426 97.2447 11.6567C97.3435 11.6637 97.4281 11.6849 97.5058 11.699V13.216C97.4281 13.1949 97.3152 13.1737 97.1741 13.1525C97.033 13.1314 96.906 13.1243 96.786 13.1243C96.532 13.1243 96.3133 13.1808 96.1157 13.2866C95.9182 13.3924 95.7629 13.5477 95.65 13.7382C95.5371 13.9287 95.4807 14.1545 95.4807 14.4014V17.8871H93.7732L93.7661 17.8941Z" fill="#010721"/>
<path d="M100.893 18.0136C100.258 18.0136 99.7143 17.8866 99.2556 17.6256C98.797 17.3645 98.4513 17.0046 98.2043 16.5248C97.9573 16.0521 97.8374 15.4876 97.8374 14.8385C97.8374 14.1893 97.9573 13.646 98.2043 13.1733C98.4513 12.6935 98.797 12.3195 99.2415 12.0584C99.686 11.7903 100.215 11.6562 100.822 11.6562C101.231 11.6562 101.605 11.7198 101.958 11.8538C102.311 11.9879 102.614 12.1784 102.882 12.4395C103.143 12.7005 103.348 13.0251 103.496 13.4132C103.644 13.8083 103.715 14.2599 103.715 14.7891V15.2618H98.5148V14.2034H102.106C102.106 13.9565 102.05 13.7377 101.944 13.5472C101.838 13.3567 101.69 13.2086 101.499 13.1027C101.309 12.9969 101.09 12.9404 100.843 12.9404C100.596 12.9404 100.356 12.9969 100.159 13.1168C99.9612 13.2368 99.806 13.392 99.6931 13.5966C99.5802 13.8012 99.5238 14.02 99.5238 14.2599V15.2689C99.5238 15.5723 99.5802 15.8334 99.6931 16.0591C99.806 16.2849 99.9683 16.4543 100.173 16.5742C100.385 16.6942 100.632 16.7506 100.914 16.7506C101.104 16.7506 101.274 16.7224 101.436 16.673C101.598 16.6236 101.732 16.5389 101.838 16.4331C101.951 16.3273 102.036 16.1932 102.092 16.038L103.673 16.1438C103.595 16.5248 103.426 16.8565 103.179 17.1387C102.932 17.4209 102.614 17.6397 102.226 17.7949C101.838 17.9501 101.387 18.0277 100.879 18.0277L100.893 18.0136Z" fill="#010721"/>
<path d="M55.0152 24.9773H53.2583C53.223 24.7515 53.1595 24.5469 53.0607 24.3705C52.9619 24.1941 52.8349 24.0388 52.6797 23.9118C52.5245 23.7848 52.3481 23.6931 52.1435 23.6225C51.9388 23.552 51.7201 23.5238 51.4873 23.5238C51.0639 23.5238 50.6899 23.6296 50.3795 23.8413C50.062 24.053 49.8221 24.3564 49.6457 24.7515C49.4693 25.1537 49.3846 25.6335 49.3846 26.205C49.3846 26.7765 49.4693 27.2846 49.6457 27.6797C49.8221 28.0748 50.069 28.3782 50.3795 28.5829C50.697 28.7875 51.0568 28.8863 51.4731 28.8863C51.706 28.8863 51.9247 28.858 52.1223 28.7945C52.3199 28.731 52.4962 28.6464 52.6515 28.5264C52.8067 28.4065 52.9337 28.2653 53.0396 28.0889C53.1454 27.9196 53.216 27.722 53.2512 27.5033H55.0082C54.9658 27.8914 54.8529 28.2512 54.6695 28.597C54.4931 28.9427 54.2461 29.2602 53.9427 29.5283C53.6393 29.8035 53.2795 30.0223 52.8632 30.1775C52.4469 30.3327 51.9741 30.4174 51.4449 30.4174C50.7111 30.4174 50.062 30.2481 49.4834 29.9164C48.9048 29.5848 48.4532 29.105 48.1216 28.477C47.7899 27.849 47.6206 27.087 47.6206 26.198C47.6206 25.3089 47.7899 24.5398 48.1286 23.9118C48.4673 23.2839 48.9189 22.8041 49.4975 22.4724C50.0761 22.1408 50.7252 21.9785 51.4449 21.9785C51.9177 21.9785 52.3622 22.042 52.7714 22.1761C53.1807 22.3101 53.5405 22.5077 53.858 22.7617C54.1756 23.0157 54.4296 23.3262 54.6271 23.7002C54.8247 24.0671 54.9517 24.4904 55.0082 24.9702L55.0152 24.9773Z" fill="#010721"/>
<path d="M57.9857 30.4245C57.5905 30.4245 57.2448 30.354 56.9343 30.2199C56.6239 30.0859 56.384 29.8812 56.2076 29.6061C56.0312 29.3309 55.9395 28.9993 55.9395 28.59C55.9395 28.2513 56.003 27.962 56.13 27.7292C56.257 27.4963 56.4263 27.3129 56.645 27.1718C56.8638 27.0306 57.1107 26.9248 57.3859 26.8472C57.6611 26.7766 57.9504 26.7272 58.2609 26.692C58.6207 26.6567 58.91 26.6214 59.1287 26.5861C59.3475 26.5508 59.5098 26.5015 59.6085 26.438C59.7073 26.3744 59.7567 26.2686 59.7567 26.1416V26.1204C59.7567 25.8664 59.6791 25.6689 59.5168 25.5348C59.3616 25.3937 59.1358 25.3231 58.8394 25.3231C58.529 25.3231 58.2891 25.3937 58.1056 25.5277C57.9222 25.6618 57.8022 25.8311 57.7458 26.0358L56.1652 25.9088C56.2429 25.5348 56.4051 25.2102 56.638 24.935C56.8708 24.6599 57.1742 24.4482 57.5482 24.3C57.9222 24.1518 58.3526 24.0742 58.8465 24.0742C59.1852 24.0742 59.5168 24.1166 59.8273 24.1942C60.1448 24.2718 60.42 24.3988 60.6669 24.5681C60.9139 24.7375 61.1044 24.9492 61.2455 25.2173C61.3866 25.4783 61.4572 25.7959 61.4572 26.1628V30.3187H59.8414V29.4649H59.792C59.6932 29.6554 59.5591 29.8248 59.3969 29.973C59.2275 30.1211 59.0299 30.234 58.7971 30.3117C58.5643 30.3963 58.2961 30.4316 57.9927 30.4316L57.9857 30.4245ZM58.4725 29.2462C58.7265 29.2462 58.9453 29.1968 59.1358 29.098C59.3263 28.9993 59.4815 28.8652 59.5874 28.6888C59.7003 28.5194 59.7497 28.3219 59.7497 28.1102V27.454C59.6932 27.4893 59.6226 27.5175 59.5309 27.5457C59.4392 27.574 59.3334 27.6022 59.2205 27.6233C59.1076 27.6445 58.9876 27.6657 58.8747 27.6798C58.7618 27.6939 58.656 27.7151 58.5643 27.7292C58.3667 27.7574 58.1903 27.8068 58.0421 27.8703C57.8939 27.9338 57.774 28.0185 57.6964 28.1314C57.6117 28.2372 57.5694 28.3713 57.5694 28.5336C57.5694 28.7664 57.654 28.9428 57.8234 29.0628C57.9927 29.1827 58.2115 29.2462 58.4725 29.2462Z" fill="#010721"/>
<path d="M64.4912 22.0986V30.3117H62.7837V22.0986H64.4912Z" fill="#010721"/>
<path d="M68.6329 30.4316C68.005 30.4316 67.4617 30.2975 67.0101 30.0294C66.5585 29.7613 66.2128 29.3873 65.9658 28.9075C65.7259 28.4277 65.606 27.8774 65.606 27.2564C65.606 26.6355 65.7259 26.071 65.9729 25.5912C66.2198 25.1114 66.5656 24.7375 67.0171 24.4764C67.4687 24.2083 68.005 24.0742 68.6259 24.0742C69.1621 24.0742 69.6349 24.173 70.0371 24.3706C70.4393 24.5681 70.7568 24.8363 70.9967 25.1891C71.2295 25.5419 71.3636 25.9581 71.3848 26.4309H69.776C69.7337 26.1204 69.6137 25.8735 69.4161 25.69C69.2186 25.4995 68.9716 25.4078 68.6541 25.4078C68.386 25.4078 68.1602 25.4783 67.9626 25.6195C67.7651 25.7606 67.6098 25.9723 67.504 26.2404C67.3911 26.5156 67.3417 26.8401 67.3417 27.2282C67.3417 27.6163 67.3982 27.955 67.504 28.2302C67.6098 28.5053 67.7651 28.717 67.9626 28.8581C68.1602 28.9993 68.393 29.0769 68.6541 29.0769C68.8517 29.0769 69.0281 29.0345 69.1833 28.9569C69.3385 28.8793 69.4726 28.7593 69.5714 28.6041C69.6772 28.4489 69.7407 28.2654 69.776 28.0467H71.3848C71.3565 28.5194 71.2295 28.9287 71.0037 29.2885C70.7779 29.6484 70.4604 29.9236 70.0582 30.1211C69.6561 30.3187 69.1833 30.4245 68.6329 30.4245V30.4316Z" fill="#010721"/>
<path d="M76.4298 27.6874V24.1523H78.1374V30.3122H76.5004V29.1973H76.4369C76.2958 29.5572 76.07 29.8465 75.7454 30.0652C75.4208 30.2839 75.0328 30.3968 74.5671 30.3968C74.1578 30.3968 73.7909 30.3051 73.4805 30.1146C73.17 29.9311 72.923 29.663 72.7466 29.3173C72.5702 28.9715 72.4856 28.5623 72.4785 28.0754V24.1523H74.186V27.765C74.186 28.1319 74.2848 28.4141 74.4753 28.6258C74.6659 28.8375 74.9269 28.9433 75.2515 28.9433C75.4561 28.9433 75.6466 28.8939 75.8301 28.8022C76.0065 28.7105 76.1546 28.5693 76.2675 28.3788C76.3804 28.1954 76.4298 27.9625 76.4298 27.6874Z" fill="#010721"/>
<path d="M81.2139 22.0986V30.3117H79.5063V22.0986H81.2139Z" fill="#010721"/>
<path d="M84.3328 30.4245C83.9377 30.4245 83.592 30.354 83.2815 30.2199C82.971 30.0859 82.7311 29.8812 82.5547 29.6061C82.3783 29.3309 82.2866 28.9993 82.2866 28.59C82.2866 28.2513 82.3501 27.962 82.4771 27.7292C82.6041 27.4963 82.7735 27.3129 82.9922 27.1718C83.2109 27.0306 83.4579 26.9248 83.7331 26.8472C84.0083 26.7766 84.2976 26.7272 84.608 26.692C84.9679 26.6567 85.2572 26.6214 85.4759 26.5861C85.6946 26.5508 85.8569 26.5015 85.9557 26.438C86.0545 26.3744 86.1039 26.2686 86.1039 26.1416V26.1204C86.1039 25.8664 86.0263 25.6689 85.864 25.5348C85.7087 25.3937 85.483 25.3231 85.1866 25.3231C84.8761 25.3231 84.6362 25.3937 84.4528 25.5277C84.2693 25.6618 84.1494 25.8311 84.0929 26.0358L82.5124 25.9088C82.59 25.5348 82.7523 25.2102 82.9852 24.935C83.218 24.6599 83.5214 24.4482 83.8954 24.3C84.2693 24.1518 84.6997 24.0742 85.1937 24.0742C85.5323 24.0742 85.864 24.1166 86.1744 24.1942C86.4919 24.2718 86.7671 24.3988 87.0141 24.5681C87.261 24.7375 87.4516 24.9492 87.5927 25.2173C87.7338 25.4783 87.8043 25.7959 87.8043 26.1628V30.3187H86.1885V29.4649H86.1392C86.0404 29.6554 85.9063 29.8248 85.744 29.973C85.5747 30.1211 85.3771 30.234 85.1443 30.3117C84.9114 30.3963 84.6433 30.4316 84.3399 30.4316L84.3328 30.4245ZM84.8197 29.2462C85.0737 29.2462 85.2924 29.1968 85.483 29.098C85.6735 28.9993 85.8287 28.8652 85.9345 28.6888C86.0474 28.5194 86.0968 28.3219 86.0968 28.1102V27.454C86.0404 27.4893 85.9698 27.5175 85.8781 27.5457C85.7864 27.574 85.6805 27.6022 85.5676 27.6233C85.4547 27.6445 85.3348 27.6657 85.2219 27.6798C85.109 27.6939 85.0031 27.7151 84.9114 27.7292C84.7139 27.7574 84.5375 27.8068 84.3893 27.8703C84.2411 27.9338 84.1212 28.0185 84.0435 28.1314C83.9589 28.2372 83.9165 28.3713 83.9165 28.5336C83.9165 28.7664 84.0012 28.9428 84.1706 29.0628C84.3399 29.1827 84.5586 29.2462 84.8197 29.2462Z" fill="#010721"/>
<path d="M92.3974 24.1517V25.4358H88.686V24.1517H92.3974ZM89.5327 22.677H91.2403V28.4205C91.2403 28.5757 91.2614 28.7027 91.3108 28.7874C91.3602 28.8721 91.4237 28.9356 91.5155 28.9709C91.6072 29.0061 91.706 29.0202 91.8189 29.0202C91.8965 29.0202 91.9811 29.0132 92.0588 28.9991C92.1364 28.985 92.1999 28.9709 92.2422 28.9638L92.5103 30.2339C92.4257 30.2621 92.3057 30.2903 92.1505 30.3256C91.9953 30.3609 91.8048 30.382 91.586 30.3891C91.1768 30.4032 90.8169 30.3538 90.5065 30.2268C90.196 30.0998 89.9561 29.9022 89.7868 29.6412C89.6174 29.3801 89.5327 29.0414 89.5327 28.6392V22.6699V22.677Z" fill="#010721"/>
<path d="M96.2289 30.4318C95.608 30.4318 95.0717 30.2978 94.6131 30.0296C94.1615 29.7615 93.8087 29.3946 93.5617 28.9148C93.3148 28.435 93.1948 27.8846 93.1948 27.2567C93.1948 26.6287 93.3148 26.0642 93.5617 25.5844C93.8087 25.1046 94.1544 24.7377 94.6131 24.4696C95.0646 24.2014 95.6009 24.0674 96.2289 24.0674C96.8568 24.0674 97.386 24.2014 97.8447 24.4696C98.2963 24.7377 98.6491 25.1046 98.896 25.5844C99.143 26.0642 99.2629 26.6146 99.2629 27.2567C99.2629 27.8987 99.143 28.4421 98.896 28.9148C98.6491 29.3946 98.3033 29.7615 97.8447 30.0296C97.3931 30.2978 96.8568 30.4318 96.2289 30.4318ZM96.2359 29.1053C96.5182 29.1053 96.7581 29.0206 96.9415 28.8654C97.132 28.7031 97.2731 28.4844 97.3719 28.2022C97.4707 27.9199 97.5201 27.6024 97.5201 27.2425C97.5201 26.8827 97.4707 26.5652 97.3719 26.2829C97.2731 26.0007 97.132 25.782 96.9415 25.6197C96.751 25.4574 96.5182 25.3727 96.2359 25.3727C95.9537 25.3727 95.7067 25.4574 95.5162 25.6197C95.3257 25.782 95.1775 26.0007 95.0788 26.2829C94.98 26.5652 94.9306 26.8827 94.9306 27.2425C94.9306 27.6024 94.98 27.9199 95.0788 28.2022C95.1775 28.4844 95.3187 28.7031 95.5162 28.8654C95.7067 29.0277 95.9466 29.1053 96.2359 29.1053Z" fill="#010721"/>
<path d="M100.378 30.3121V24.1523H102.036V25.2248H102.1C102.212 24.8438 102.403 24.5545 102.664 24.3569C102.925 24.1593 103.236 24.0605 103.581 24.0605C103.666 24.0605 103.758 24.0605 103.857 24.0747C103.955 24.0817 104.04 24.1029 104.118 24.117V25.634C104.04 25.6129 103.927 25.5917 103.786 25.5705C103.645 25.5493 103.518 25.5423 103.398 25.5423C103.144 25.5423 102.925 25.5987 102.728 25.7046C102.53 25.8104 102.375 25.9656 102.262 26.1562C102.149 26.3467 102.093 26.5725 102.093 26.8194V30.305H100.385L100.378 30.3121Z" fill="#010721"/>
<path d="M40 2.89998V37.1141C40 38.7088 38.7088 39.9929 37.1141 39.9929H2.89998C1.28418 39.9929 0 38.7017 0 37.1141V2.89998C0 1.30535 1.29123 0 2.89998 0H37.1141C38.7088 0 40 1.30535 40 2.89998Z" fill="#092BD3"/>
<path d="M17.4491 9.82129H8.50922C7.87013 9.82129 7.35205 10.3394 7.35205 10.9785V29.0275C7.35205 29.6666 7.87013 30.1847 8.50922 30.1847H17.4491C18.0882 30.1847 18.6062 29.6666 18.6062 29.0275V10.9785C18.6062 10.3394 18.0882 9.82129 17.4491 9.82129Z" fill="#F3F6FF"/>
<path d="M20.8433 9.80762H30.9332C31.5753 9.80762 32.0904 10.3298 32.0904 10.9648V22.1343C32.0904 22.7764 31.5683 23.2915 30.9332 23.2915H22.0004C21.3583 23.2915 20.8433 22.7693 20.8433 22.1343V9.80762Z" fill="#F3F6FF"/>
<path d="M20.8433 25.5283H30.9332C31.5753 25.5283 32.0904 26.0505 32.0904 26.6855V29.021C32.0904 29.6631 31.5683 30.1782 30.9332 30.1782H22.0004C21.3583 30.1782 20.8433 29.656 20.8433 29.021V25.5283Z" fill="#F3F6FF"/>
<path d="M17.3434 11.3311H8.6152C8.45153 11.3311 8.31885 11.4637 8.31885 11.6274V17.258C8.31885 17.4217 8.45153 17.5544 8.6152 17.5544H17.3434C17.507 17.5544 17.6397 17.4217 17.6397 17.258V11.6274C17.6397 11.4637 17.507 11.3311 17.3434 11.3311Z" fill="#092BD3"/>
</g>
<defs>
<clipPath id="clip0_2306_517">
<rect width="104.11" height="40" fill="white"/>
</clipPath>
</defs>
</svg>
