<svg width="108" height="20" viewBox="0 0 108 20" fill="none" xmlns="http://www.w3.org/2000/svg">
<path d="M104.24 18.9799C103.227 18.9799 102.387 18.6733 101.72 18.0599C101.08 17.4199 100.76 16.6333 100.76 15.6999C100.76 14.7666 101.08 13.9933 101.72 13.3799C102.387 12.7399 103.227 12.4199 104.24 12.4199C105.227 12.4199 106.04 12.7399 106.68 13.3799C107.32 13.9933 107.64 14.7666 107.64 15.6999C107.64 16.6333 107.32 17.4199 106.68 18.0599C106.04 18.6733 105.227 18.9799 104.24 18.9799Z" fill="#EB4723"/>
<path d="M96.4218 12.0638C96.4218 12.5438 96.3898 12.9758 96.3258 13.3598H86.6058C86.6858 14.3198 87.0218 15.0718 87.6138 15.6158C88.2058 16.1598 88.9338 16.4318 89.7978 16.4318C91.0458 16.4318 91.9338 15.8958 92.4618 14.8238H96.0858C95.7018 16.1038 94.9658 17.1598 93.8778 17.9918C92.7898 18.8078 91.4538 19.2158 89.8698 19.2158C88.5898 19.2158 87.4378 18.9358 86.4138 18.3758C85.4058 17.7998 84.6138 16.9918 84.0378 15.9518C83.4778 14.9118 83.1978 13.7118 83.1978 12.3518C83.1978 10.9758 83.4778 9.76779 84.0378 8.72779C84.5978 7.68779 85.3818 6.88779 86.3898 6.32779C87.3978 5.76779 88.5578 5.48779 89.8698 5.48779C91.1338 5.48779 92.2618 5.75979 93.2538 6.30379C94.2618 6.84779 95.0378 7.62379 95.5818 8.63179C96.1418 9.62379 96.4218 10.7678 96.4218 12.0638ZM92.9418 11.1038C92.9258 10.2398 92.6138 9.55179 92.0058 9.03979C91.3978 8.51179 90.6538 8.24779 89.7738 8.24779C88.9418 8.24779 88.2378 8.50379 87.6618 9.01579C87.1018 9.51179 86.7578 10.2078 86.6298 11.1038H92.9418Z" fill="#111111"/>
<path d="M78.1989 7.76796C78.6309 7.06396 79.1909 6.51196 79.8789 6.11196C80.5829 5.71196 81.3829 5.51196 82.2789 5.51196V9.03996H81.3909C80.3349 9.03996 79.5349 9.28796 78.9909 9.78396C78.4629 10.28 78.1989 11.144 78.1989 12.376V19H74.8389V5.70396H78.1989V7.76796Z" fill="#111111"/>
<path d="M65.9178 19.2158C64.6378 19.2158 63.4858 18.9358 62.4618 18.3758C61.4378 17.7998 60.6298 16.9918 60.0378 15.9518C59.4618 14.9118 59.1738 13.7118 59.1738 12.3518C59.1738 10.9918 59.4698 9.79179 60.0618 8.75179C60.6698 7.71179 61.4938 6.91179 62.5338 6.35179C63.5738 5.77579 64.7338 5.48779 66.0138 5.48779C67.2938 5.48779 68.4538 5.77579 69.4938 6.35179C70.5338 6.91179 71.3498 7.71179 71.9418 8.75179C72.5498 9.79179 72.8538 10.9918 72.8538 12.3518C72.8538 13.7118 72.5418 14.9118 71.9178 15.9518C71.3098 16.9918 70.4778 17.7998 69.4218 18.3758C68.3818 18.9358 67.2138 19.2158 65.9178 19.2158ZM65.9178 16.2878C66.5258 16.2878 67.0938 16.1438 67.6218 15.8558C68.1658 15.5518 68.5978 15.1038 68.9178 14.5118C69.2378 13.9198 69.3978 13.1998 69.3978 12.3518C69.3978 11.0878 69.0618 10.1198 68.3898 9.44779C67.7338 8.75979 66.9258 8.41579 65.9658 8.41579C65.0058 8.41579 64.1978 8.75979 63.5418 9.44779C62.9018 10.1198 62.5818 11.0878 62.5818 12.3518C62.5818 13.6158 62.8938 14.5918 63.5178 15.2798C64.1578 15.9518 64.9578 16.2878 65.9178 16.2878Z" fill="#111111"/>
<path d="M45.1924 12.3518C45.1924 10.9758 45.4724 9.77579 46.0324 8.75179C46.5924 7.71179 47.3684 6.91179 48.3604 6.35179C49.3524 5.77579 50.4884 5.48779 51.7684 5.48779C53.4164 5.48779 54.7764 5.90379 55.8484 6.73579C56.9364 7.55179 57.6644 8.70379 58.0324 10.1918H54.4084C54.2164 9.61579 53.8884 9.16779 53.4244 8.84779C52.9764 8.51179 52.4164 8.34379 51.7444 8.34379C50.7844 8.34379 50.0244 8.69579 49.4644 9.39979C48.9044 10.0878 48.6244 11.0718 48.6244 12.3518C48.6244 13.6158 48.9044 14.5998 49.4644 15.3038C50.0244 15.9918 50.7844 16.3358 51.7444 16.3358C53.1044 16.3358 53.9924 15.7278 54.4084 14.5118H58.0324C57.6644 15.9518 56.9364 17.0958 55.8484 17.9438C54.7604 18.7918 53.4004 19.2158 51.7684 19.2158C50.4884 19.2158 49.3524 18.9358 48.3604 18.3758C47.3684 17.7998 46.5924 16.9998 46.0324 15.9758C45.4724 14.9358 45.1924 13.7278 45.1924 12.3518Z" fill="#111111"/>
<path d="M38.5463 19.2158C37.4583 19.2158 36.4823 19.0238 35.6183 18.6398C34.7543 18.2398 34.0663 17.7038 33.5543 17.0318C33.0583 16.3598 32.7863 15.6158 32.7383 14.7998H36.1223C36.1863 15.3118 36.4343 15.7358 36.8663 16.0718C37.3143 16.4078 37.8663 16.5758 38.5223 16.5758C39.1623 16.5758 39.6583 16.4478 40.0103 16.1918C40.3783 15.9358 40.5623 15.6078 40.5623 15.2078C40.5623 14.7758 40.3383 14.4558 39.8903 14.2478C39.4583 14.0238 38.7623 13.7838 37.8023 13.5278C36.8103 13.2878 35.9943 13.0398 35.3543 12.7838C34.7303 12.5278 34.1863 12.1358 33.7223 11.6078C33.2743 11.0798 33.0503 10.3678 33.0503 9.47179C33.0503 8.73579 33.2583 8.06379 33.6743 7.45579C34.1063 6.84779 34.7143 6.36779 35.4983 6.01579C36.2983 5.66379 37.2343 5.48779 38.3063 5.48779C39.8903 5.48779 41.1543 5.88779 42.0983 6.68779C43.0423 7.47179 43.5623 8.53579 43.6583 9.87979H40.4423C40.3943 9.35179 40.1703 8.93579 39.7703 8.63179C39.3863 8.31179 38.8663 8.15179 38.2103 8.15179C37.6023 8.15179 37.1303 8.26379 36.7943 8.48779C36.4743 8.71179 36.3143 9.02379 36.3143 9.42379C36.3143 9.87179 36.5383 10.2158 36.9863 10.4558C37.4343 10.6798 38.1303 10.9118 39.0743 11.1518C40.0343 11.3918 40.8263 11.6398 41.4503 11.8958C42.0743 12.1518 42.6103 12.5518 43.0583 13.0958C43.5223 13.6238 43.7623 14.3278 43.7783 15.2078C43.7783 15.9758 43.5623 16.6638 43.1303 17.2718C42.7143 17.8798 42.1063 18.3598 41.3063 18.7118C40.5223 19.0478 39.6023 19.2158 38.5463 19.2158Z" fill="#111111"/>
<path d="M31.7612 8.46389H29.4332V18.9999H26.0252V8.46389H24.5132V5.70389H26.0252V5.03189C26.0252 3.39989 26.4892 2.19989 27.4172 1.43189C28.3452 0.663891 29.7452 0.303891 31.6172 0.351892V3.18389C30.8012 3.16789 30.2332 3.30389 29.9132 3.59189C29.5932 3.87989 29.4332 4.39989 29.4332 5.15189V5.70389H31.7612V8.46389Z" fill="#111111"/>
<path d="M9.01514 12.3038C9.01514 10.9598 9.27914 9.76779 9.80714 8.72779C10.3511 7.68779 11.0791 6.88779 11.9911 6.32779C12.9191 5.76779 13.9511 5.48779 15.0871 5.48779C16.0791 5.48779 16.9431 5.68779 17.6791 6.08779C18.4311 6.48779 19.0311 6.99179 19.4791 7.59979V5.70379H22.8631V18.9998H19.4791V17.0558C19.0471 17.6798 18.4471 18.1998 17.6791 18.6158C16.9271 19.0158 16.0551 19.2158 15.0631 19.2158C13.9431 19.2158 12.9191 18.9278 11.9911 18.3518C11.0791 17.7758 10.3511 16.9678 9.80714 15.9278C9.27914 14.8718 9.01514 13.6638 9.01514 12.3038ZM19.4791 12.3518C19.4791 11.5358 19.3191 10.8398 18.9991 10.2638C18.6791 9.67179 18.2471 9.22379 17.7031 8.91979C17.1591 8.59979 16.5751 8.43979 15.9511 8.43979C15.3271 8.43979 14.7511 8.59179 14.2231 8.89579C13.6951 9.19979 13.2631 9.64779 12.9271 10.2398C12.6071 10.8158 12.4471 11.5038 12.4471 12.3038C12.4471 13.1038 12.6071 13.8078 12.9271 14.4158C13.2631 15.0078 13.6951 15.4638 14.2231 15.7838C14.7671 16.1038 15.3431 16.2638 15.9511 16.2638C16.5751 16.2638 17.1591 16.1118 17.7031 15.8078C18.2471 15.4878 18.6791 15.0398 18.9991 14.4638C19.3191 13.8718 19.4791 13.1678 19.4791 12.3518Z" fill="#111111"/>
<path d="M4.01625 7.76796C4.44825 7.06396 5.00825 6.51196 5.69625 6.11196C6.40025 5.71196 7.20025 5.51196 8.09625 5.51196V9.03996H7.20825C6.15225 9.03996 5.35225 9.28796 4.80825 9.78396C4.28025 10.28 4.01625 11.144 4.01625 12.376V19H0.65625V5.70396H4.01625V7.76796Z" fill="#111111"/>
</svg>
