<svg width="80" height="80" viewBox="0 0 80 80" fill="none" xmlns="http://www.w3.org/2000/svg">
<g clip-path="url(#clip0_2402_9818)">
<path d="M40 80C62.0914 80 80 62.0914 80 40C80 17.9086 62.0914 0 40 0C17.9086 0 0 17.9086 0 40C0 62.0914 17.9086 80 40 80Z" fill="#223FD7"/>
<path d="M76.9 40C76.9 60.3793 60.3793 76.9 40 76.9C19.6207 76.9 3.1 60.3793 3.1 40C3.1 19.6207 19.6207 3.1 40 3.1C60.3793 3.1 76.9 19.6207 76.9 40Z" fill="white" stroke="white" stroke-width="0.2"/>
<path d="M31.9004 42.06H23.9004V53.16H31.9004V42.06Z" fill="#223FD7"/>
<path d="M44 37.91H36V53.15H44V37.91Z" fill="#223FD7"/>
<path d="M56.0996 33.13H48.0996V53.16H56.0996V33.13Z" fill="#223FD7"/>
<path d="M23.8999 37.42C23.3699 37.42 22.9299 37.01 22.8999 36.47C22.8699 35.92 23.29 35.45 23.84 35.42C24.02 35.42 41.6299 34.28 51.2599 19.98C51.5699 19.52 52.19 19.4 52.65 19.71C53.11 20.02 53.2299 20.64 52.9199 21.1C42.7199 36.25 24.71 37.38 23.95 37.42C23.93 37.42 23.9099 37.42 23.8999 37.42Z" fill="#223FD7"/>
<path d="M54.2996 25.35C53.7996 25.35 53.3596 24.97 53.3096 24.46L52.8196 19.91L47.8696 20.45C47.3296 20.5 46.8296 20.11 46.7696 19.56C46.7096 19.01 47.1096 18.52 47.6596 18.46L53.1096 17.87C53.5096 17.83 53.8996 17.94 54.2096 18.19C54.5196 18.44 54.7196 18.8 54.7596 19.2L55.3096 24.25C55.3696 24.8 54.9696 25.29 54.4196 25.35C54.3796 25.35 54.3496 25.35 54.3096 25.35H54.2996Z" fill="#223FD7"/>
</g>
<defs>
<clipPath id="clip0_2402_9818">
<rect width="80" height="80" fill="white"/>
</clipPath>
</defs>
</svg>
