<svg width="80" height="80" viewBox="0 0 80 80" fill="none" xmlns="http://www.w3.org/2000/svg">
<g clip-path="url(#clip0_2469_12579)">
<path d="M40 80C62.0914 80 80 62.0914 80 40C80 17.9086 62.0914 0 40 0C17.9086 0 0 17.9086 0 40C0 62.0914 17.9086 80 40 80Z" fill="#EB4723"/>
<path d="M76.9 40C76.9 60.3793 60.3793 76.9 40 76.9C19.6207 76.9 3.1 60.3793 3.1 40C3.1 19.6207 19.6207 3.1 40 3.1C60.3793 3.1 76.9 19.6207 76.9 40Z" fill="white" stroke="white" stroke-width="0.2"/>
<path d="M31.9004 42.0601H23.9004V53.1601H31.9004V42.0601Z" fill="#EB4723"/>
<path d="M44 37.9099H36V53.1499H44V37.9099Z" fill="#EB4723"/>
<path d="M56.0996 33.1299H48.0996V53.1599H56.0996V33.1299Z" fill="#EB4723"/>
<path d="M23.8999 37.4199C23.3699 37.4199 22.9299 37.0099 22.8999 36.4699C22.8699 35.9199 23.29 35.4499 23.84 35.4199C24.02 35.4199 41.6299 34.2799 51.2599 19.9799C51.5699 19.5199 52.19 19.3999 52.65 19.7099C53.11 20.0199 53.2299 20.6399 52.9199 21.0999C42.7199 36.2499 24.71 37.3799 23.95 37.4199C23.93 37.4199 23.9099 37.4199 23.8999 37.4199Z" fill="#EB4723"/>
<path d="M54.2996 25.3501C53.7996 25.3501 53.3596 24.9701 53.3096 24.4601L52.8196 19.9101L47.8696 20.4501C47.3296 20.5001 46.8296 20.1101 46.7696 19.5601C46.7096 19.0101 47.1096 18.5201 47.6596 18.4601L53.1096 17.8701C53.5096 17.8301 53.8996 17.9401 54.2096 18.1901C54.5196 18.4401 54.7196 18.8001 54.7596 19.2001L55.3096 24.2501C55.3696 24.8001 54.9696 25.2901 54.4196 25.3501C54.3796 25.3501 54.3496 25.3501 54.3096 25.3501H54.2996Z" fill="#EB4723"/>
</g>
<defs>
<clipPath id="clip0_2469_12579">
<rect width="80" height="80" fill="white"/>
</clipPath>
</defs>
</svg>
