<svg width="80" height="80" viewBox="0 0 80 80" fill="none" xmlns="http://www.w3.org/2000/svg">
<g clip-path="url(#clip0_2469_12588)">
<path d="M40 80C62.0914 80 80 62.0914 80 40C80 17.9086 62.0914 0 40 0C17.9086 0 0 17.9086 0 40C0 62.0914 17.9086 80 40 80Z" fill="#EB4723"/>
<path d="M76.9 40C76.9 60.3793 60.3793 76.9 40 76.9C19.6207 76.9 3.1 60.3793 3.1 40C3.1 19.6207 19.6207 3.1 40 3.1C60.3793 3.1 76.9 19.6207 76.9 40Z" fill="white" stroke="white" stroke-width="0.2"/>
<path d="M67.3996 41.5001H12.5996V40.0001C12.5996 24.8901 24.8896 12.6001 39.9996 12.6001C55.1096 12.6001 67.3996 24.8901 67.3996 40.0001V41.5001ZM15.6496 38.5001H64.3496C63.5696 25.7401 52.9496 15.6001 39.9996 15.6001C27.0496 15.6001 16.4296 25.7401 15.6496 38.5001Z" fill="#EB4723"/>
<path d="M40 46C43.3137 46 46 43.3137 46 40C46 36.6863 43.3137 34 40 34C36.6863 34 34 36.6863 34 40C34 43.3137 36.6863 46 40 46Z" fill="#EB4723"/>
<path d="M40 41.0001C39.45 41.0001 39 40.5501 39 40.0001V20.8601C39 20.3101 39.45 19.8601 40 19.8601C40.55 19.8601 41 20.3101 41 20.8601V40.0001C41 40.5501 40.55 41.0001 40 41.0001Z" fill="#EB4723"/>
<path d="M16.2891 48.2798H17.9991L20.9691 55.5398H21.0791L24.0491 48.2798H25.7591V57.6198H24.4191V50.8598H24.3291L21.5791 57.6098H20.4691L17.7191 50.8598H17.6291V57.6198H16.2891V48.2798Z" fill="#EB4723"/>
<path d="M30.7284 57.76C30.0384 57.76 29.4484 57.61 28.9484 57.31C28.4484 57.01 28.0684 56.6 27.7984 56.06C27.5284 55.52 27.3984 54.89 27.3984 54.16C27.3984 53.43 27.5284 52.81 27.7984 52.26C28.0684 51.71 28.4484 51.29 28.9284 50.98C29.4184 50.67 29.9784 50.52 30.6284 50.52C31.0284 50.52 31.4084 50.59 31.7784 50.72C32.1484 50.85 32.4784 51.06 32.7784 51.34C33.0684 51.62 33.3084 51.98 33.4784 52.43C33.6484 52.88 33.7284 53.42 33.7284 54.05V54.53H28.1584V53.51H32.3884C32.3884 53.15 32.3184 52.83 32.1684 52.55C32.0184 52.27 31.8184 52.05 31.5584 51.89C31.2984 51.73 30.9884 51.65 30.6384 51.65C30.2584 51.65 29.9184 51.74 29.6384 51.93C29.3484 52.12 29.1384 52.36 28.9784 52.66C28.8184 52.96 28.7484 53.28 28.7484 53.63V54.43C28.7484 54.9 28.8284 55.3 28.9984 55.63C29.1684 55.96 29.3984 56.21 29.6984 56.38C29.9984 56.55 30.3484 56.64 30.7384 56.64C30.9984 56.64 31.2284 56.6 31.4484 56.53C31.6684 56.46 31.8484 56.34 31.9984 56.19C32.1484 56.04 32.2684 55.86 32.3584 55.64L33.6484 55.87C33.5484 56.25 33.3584 56.58 33.0984 56.87C32.8284 57.15 32.4984 57.37 32.0984 57.53C31.6984 57.69 31.2484 57.77 30.7284 57.77V57.76Z" fill="#EB4723"/>
<path d="M37.8792 57.76C37.3092 57.76 36.8092 57.61 36.3692 57.32C35.9292 57.03 35.5792 56.61 35.3292 56.07C35.0792 55.53 34.9492 54.88 34.9492 54.12C34.9492 53.36 35.0792 52.72 35.3292 52.18C35.5792 51.64 35.9292 51.23 36.3792 50.94C36.8192 50.65 37.3292 50.51 37.8892 50.51C38.3192 50.51 38.6792 50.58 38.9392 50.73C39.2092 50.87 39.4092 51.04 39.5592 51.23C39.7092 51.42 39.8192 51.59 39.8992 51.74H39.9792V48.27H41.3392V57.61H40.0092V56.52H39.8992C39.8192 56.67 39.6992 56.84 39.5492 57.03C39.3992 57.22 39.1892 57.39 38.9192 57.53C38.6492 57.67 38.3092 57.74 37.8792 57.74V57.76ZM38.1792 56.59C38.5692 56.59 38.8992 56.49 39.1792 56.28C39.4492 56.07 39.6592 55.78 39.7992 55.41C39.9392 55.04 40.0092 54.61 40.0092 54.11C40.0092 53.61 39.9392 53.2 39.7992 52.83C39.6592 52.47 39.4592 52.18 39.1792 51.98C38.8992 51.78 38.5692 51.67 38.1792 51.67C37.7892 51.67 37.4292 51.78 37.1492 51.99C36.8792 52.2 36.6692 52.49 36.5292 52.86C36.3892 53.23 36.3192 53.64 36.3192 54.11C36.3192 54.58 36.3892 55 36.5292 55.37C36.6692 55.74 36.8792 56.04 37.1492 56.26C37.4192 56.48 37.7592 56.59 38.1692 56.59H38.1792Z" fill="#EB4723"/>
<path d="M43.9791 49.5299C43.7391 49.5299 43.5391 49.4499 43.3691 49.2899C43.1991 49.1299 43.1191 48.9399 43.1191 48.7199C43.1191 48.4999 43.1991 48.2999 43.3691 48.1399C43.5391 47.9799 43.7391 47.8999 43.9791 47.8999C44.2191 47.8999 44.4191 47.9799 44.5891 48.1399C44.7591 48.2999 44.8391 48.4899 44.8391 48.7199C44.8391 48.9499 44.7591 49.1299 44.5891 49.2899C44.4191 49.4499 44.2191 49.5299 43.9791 49.5299ZM43.2891 57.6199V50.6099H44.6491V57.6199H43.2891Z" fill="#EB4723"/>
<path d="M50.9298 54.7199V50.6199H52.2998V57.6299H50.9598V56.4199H50.8898C50.7298 56.7899 50.4698 57.0999 50.1198 57.3499C49.7698 57.5999 49.3298 57.7199 48.7998 57.7199C48.3498 57.7199 47.9498 57.6199 47.6098 57.4199C47.2698 57.2199 46.9898 56.9299 46.7998 56.5299C46.6098 56.1299 46.5098 55.6499 46.5098 55.0699V50.6099H47.8698V54.8999C47.8698 55.3799 47.9998 55.7599 48.2698 56.0399C48.5298 56.3199 48.8798 56.4599 49.2998 56.4599C49.5598 56.4599 49.8098 56.3999 50.0598 56.2699C50.3098 56.1399 50.5298 55.9499 50.6898 55.6899C50.8598 55.4299 50.9398 55.0999 50.9398 54.6999L50.9298 54.7199Z" fill="#EB4723"/>
<path d="M54.1191 57.62V50.61H55.4291V51.75H55.5191C55.6691 51.36 55.8991 51.06 56.2391 50.84C56.5691 50.62 56.9691 50.51 57.4291 50.51C57.8891 50.51 58.2891 50.62 58.6091 50.84C58.9291 51.06 59.1591 51.36 59.3191 51.74H59.3891C59.5591 51.37 59.8191 51.07 60.1891 50.84C60.5591 50.61 60.9891 50.51 61.4891 50.51C62.1191 50.51 62.6391 50.71 63.0491 51.11C63.4491 51.51 63.6491 52.11 63.6491 52.91V57.61H62.2891V53.04C62.2891 52.57 62.1591 52.22 61.8991 52.01C61.6391 51.8 61.3291 51.69 60.9691 51.69C60.5291 51.69 60.1791 51.83 59.9291 52.1C59.6791 52.37 59.5591 52.72 59.5591 53.15V57.61H58.1991V52.95C58.1991 52.57 58.0791 52.26 57.8391 52.03C57.5991 51.8 57.2991 51.68 56.9091 51.68C56.6491 51.68 56.4091 51.75 56.1991 51.88C55.9791 52.01 55.8091 52.2 55.6791 52.44C55.5491 52.68 55.4791 52.96 55.4791 53.27V57.59H54.1191V57.62Z" fill="#EB4723"/>
</g>
<defs>
<clipPath id="clip0_2469_12588">
<rect width="80" height="80" fill="white"/>
</clipPath>
</defs>
</svg>
