<svg width="80" height="80" viewBox="0 0 80 80" fill="none" xmlns="http://www.w3.org/2000/svg">
<g clip-path="url(#clip0_2402_9797)">
<path d="M40 80C62.0914 80 80 62.0914 80 40C80 17.9086 62.0914 0 40 0C17.9086 0 0 17.9086 0 40C0 62.0914 17.9086 80 40 80Z" fill="#223FD7"/>
<path d="M76.9 40C76.9 60.3793 60.3793 76.9 40 76.9C19.6207 76.9 3.1 60.3793 3.1 40C3.1 19.6207 19.6207 3.1 40 3.1C60.3793 3.1 76.9 19.6207 76.9 40Z" fill="white" stroke="white" stroke-width="0.2"/>
<g clip-path="url(#clip1_2402_9797)">
<path d="M25 62.86V51H26.79V61.32H32.16V62.86H25Z" fill="#223FD7"/>
<path d="M37.8102 63.04C36.9802 63.04 36.2502 62.85 35.6302 62.47C35.0102 62.09 34.5302 61.55 34.1802 60.87C33.8302 60.19 33.6602 59.38 33.6602 58.46C33.6602 57.54 33.8302 56.73 34.1802 56.04C34.5202 55.35 35.0102 54.81 35.6302 54.43C36.2502 54.05 36.9802 53.86 37.8102 53.86C38.6402 53.86 39.3702 54.05 39.9902 54.43C40.6102 54.81 41.0902 55.35 41.4402 56.04C41.7802 56.73 41.9602 57.54 41.9602 58.46C41.9602 59.38 41.7902 60.18 41.4402 60.87C41.0902 61.56 40.6102 62.09 39.9902 62.47C39.3702 62.85 38.6402 63.04 37.8102 63.04ZM37.8102 61.58C38.3502 61.58 38.8002 61.44 39.1502 61.15C39.5002 60.86 39.7702 60.48 39.9402 60.01C40.1102 59.54 40.2002 59.01 40.2002 58.44C40.2002 57.87 40.1102 57.35 39.9402 56.87C39.7702 56.39 39.5002 56.01 39.1502 55.72C38.7902 55.43 38.3502 55.29 37.8102 55.29C37.2702 55.29 36.8102 55.43 36.4602 55.72C36.1002 56.01 35.8402 56.39 35.6702 56.87C35.5002 57.35 35.4102 57.87 35.4102 58.44C35.4102 59.01 35.5002 59.53 35.6702 60.01C35.8402 60.49 36.1102 60.87 36.4602 61.15C36.8202 61.44 37.2702 61.58 37.8102 61.58Z" fill="#223FD7"/>
<path d="M45.5399 62.86L42.9199 53.97H44.7099L46.4499 60.5H46.5399L48.2899 53.97H50.0799L51.8199 60.47H51.9099L53.6399 53.97H55.4299L52.8199 62.86H51.0499L49.2399 56.44H49.1099L47.2999 62.86H45.5399Z" fill="#223FD7"/>
</g>
<path d="M67.3996 41.5H12.5996V40C12.5996 24.89 24.8896 12.6 39.9996 12.6C55.1096 12.6 67.3996 24.89 67.3996 40V41.5ZM15.6496 38.5H64.3496C63.5696 25.74 52.9496 15.6 39.9996 15.6C27.0496 15.6 16.4296 25.74 15.6496 38.5Z" fill="#223FD7"/>
<path d="M40 46C43.3137 46 46 43.3137 46 40C46 36.6863 43.3137 34 40 34C36.6863 34 34 36.6863 34 40C34 43.3137 36.6863 46 40 46Z" fill="#223FD7"/>
<path d="M40.0003 41C39.6303 41 39.2803 40.8 39.1003 40.44L30.6303 23.28C30.3803 22.78 30.5903 22.19 31.0803 21.94C31.5803 21.69 32.1703 21.9 32.4203 22.39L40.8903 39.55C41.1403 40.05 40.9303 40.64 40.4403 40.89C40.3003 40.96 40.1503 40.99 40.0003 40.99V41Z" fill="#223FD7"/>
</g>
<defs>
<clipPath id="clip0_2402_9797">
<rect width="80" height="80" fill="white"/>
</clipPath>
<clipPath id="clip1_2402_9797">
<rect width="30.42" height="12.04" fill="white" transform="translate(25 51)"/>
</clipPath>
</defs>
</svg>
