<svg width="34" height="34" viewBox="0 0 34 34" fill="none" xmlns="http://www.w3.org/2000/svg">
<rect x="0.5" y="0.5" width="33" height="33" rx="7.5" fill="#FFF5F0" stroke="#EB4723"/>
<path d="M24.8636 14.0024C24.7654 13.0501 24.5539 11.9973 23.7756 11.444C23.1727 11.015 22.3803 10.9991 21.6406 11C20.0769 11 18.5123 11.0027 16.9486 11.0036C15.4446 11.0053 13.9406 11.0062 12.4366 11.008C11.8083 11.008 11.1975 10.9595 10.614 11.2326C10.113 11.467 9.72072 11.9127 9.48468 12.4087C9.15737 13.0985 9.08893 13.88 9.04944 14.6429C8.97661 16.0322 8.98451 17.425 9.07138 18.8134C9.13544 19.8266 9.29777 20.9463 10.0779 21.5921C10.7693 22.1638 11.7451 22.192 12.6419 22.1929C15.4885 22.1955 18.336 22.1982 21.1834 22.1999C21.5485 22.2008 21.9293 22.1938 22.3014 22.1532C23.0332 22.074 23.7308 21.8634 24.2011 21.3189C24.6758 20.7701 24.7978 20.0063 24.8698 19.283C25.0453 17.5281 25.0435 15.7564 24.8636 14.0024ZM15.6028 18.886C15.4695 18.9633 15.3025 18.8671 15.3025 18.713V14.4869C15.3025 14.3328 15.4694 14.2366 15.6028 14.3139L19.2476 16.4265C19.3805 16.5036 19.3805 16.6955 19.2476 16.7726L15.6028 18.886Z" fill="#EB4723"/>
</svg>
